<svg xmlns="http://www.w3.org/2000/svg" viewBox="0 0 578.1 694.35"><defs><style>.cls-1{fill:#b3dee1;}.cls-2{fill:#fff75f;}.cls-3{fill:#ffff40;}.cls-4{fill:#ffd527;}.cls-5{fill:#fceb54;}.cls-6{fill:#fff;}</style></defs><title>자산 1</title><g id="레이어_2" data-name="레이어 2"><g id="레이어_1-2" data-name="레이어 1"><path class="cls-1" d="M223.65,694.35h7.81c-4.18-1.46-8.91-3.27-14-5.38C219.89,691,222,692.76,223.65,694.35Z"/><path class="cls-1" d="M2.69,477.76v7.42c2.86,3.51,5.83,7.28,8.84,11.25C8.21,489.84,5.22,483.51,2.69,477.76Z"/><path class="cls-1" d="M409.61,136.53a4.6,4.6,0,0,0-3.22,1.28,4.17,4.17,0,0,0-1.34,3.2,4.51,4.51,0,0,0,1.16,3.29,4,4,0,0,0,3,1.28,4.14,4.14,0,0,0,3-1.28,3.86,3.86,0,0,0,1.26-3.2h0a4.86,4.86,0,0,0-1.08-3.29A3.54,3.54,0,0,0,409.61,136.53Z"/><path class="cls-1" d="M445.48,386.15a7.12,7.12,0,0,0,5.65-2.58,11,11,0,0,0,2.31-7.37h0a11.68,11.68,0,0,0-2.19-7.36,7,7,0,0,0-5.64-2.46,7.17,7.17,0,0,0-5.65,2.46,11,11,0,0,0-2.31,7.36,11.71,11.71,0,0,0,2.18,7.37A7.3,7.3,0,0,0,445.48,386.15Z"/><path class="cls-1" d="M401.92,123.27a3.76,3.76,0,0,0-6.44-2.84,4.28,4.28,0,0,0,0,5.67,3.58,3.58,0,0,0,2.68,1.1,3.76,3.76,0,0,0,2.69-1.1A3.81,3.81,0,0,0,401.92,123.27Z"/><path class="cls-1" d="M253.05,271.41a5.67,5.67,0,0,0,1.55,4.14,5.55,5.55,0,0,0,7.7,0,5.47,5.47,0,0,0,1.54-4.14,5.71,5.71,0,0,0-1.54-4.13,5.55,5.55,0,0,0-7.7,0A5.44,5.44,0,0,0,253.05,271.41Z"/><rect class="cls-1" x="272.79" y="111.93" width="7.87" height="12.62"/><path class="cls-1" d="M358.28,138.9c-.09.09-.09.28-.09.65v2.83c0,.92.18,1.56.63,1.74a3.29,3.29,0,0,0,1.07.18h11.45c.8,0,1.25-.18,1.43-.46a2,2,0,0,0,.35-1.46h0v-2.83a1.24,1.24,0,0,0-.09-.65.84.84,0,0,0-.63-.18h-13.5A.84.84,0,0,0,358.28,138.9Z"/><path class="cls-1" d="M151.53,127.74a.82.82,0,0,0,.27,0h6.08c.63,0,1-.36,1-1.1v-6.58h-8.14v6.58A1,1,0,0,0,151.53,127.74Z"/><path class="cls-1" d="M232.11,126.83a4.72,4.72,0,0,0,3.93-1.92c1.17-1.28,1.61-3.11,1.61-5.48h0a8.81,8.81,0,0,0-1.52-5.49,4.92,4.92,0,0,0-3.93-1.83,5.08,5.08,0,0,0-3.94,1.83,8.51,8.51,0,0,0-1.61,5.49,8.87,8.87,0,0,0,1.52,5.48A4.88,4.88,0,0,0,232.11,126.83Z"/><path class="cls-1" d="M571,0H9.76A7.08,7.08,0,0,0,2.69,7.07V449.18c5.41,4.92,15.49,19.91,25.79,38.32-9.19-27-14-49.58-9.49-48.31,2.37.67,2,2.59,2.91,2.24s-.59-1.55.79-3.59c1.6-2.34,6.19,4.22,11.87,15.67,1.64-1.05,5.26,4.6,9.61,14.09-3.37-21.56-3.9-37.3-.34-35.73,2.25,1,1.57,2.83,2.57,2.62s-.37-1.62,1.29-3.44c2-2.15,5.74,5.44,9.91,18.18.44-1.15,1-1.6,1.72-1.23,2,1,1.23,2.64,2.15,2.51s-.23-1.47,1.37-3c.6-.58,1.31-.25,2.09.85.49-13.44,2-21.81,4.52-20.28,2.1,1.29,1.16,3,2.19,2.95s-.14-1.65,1.75-3.23c3-2.47,6.77,12.59,9.46,34,1.6-10.37,3.56-16.71,5.44-15.79,2.3-12.46,4.9-19.94,7.06-18.14,1.89,1.57.72,3.15,1.75,3.22s.1-1.65,2.19-2.95c4-2.46,5.57,20.57,4.18,49.14,6.54-27.8,14.42-49.45,17.55-46,1.66,1.83.29,3.23,1.29,3.44s.32-1.62,2.57-2.61c4.28-1.89,2.66,21.15-2.69,49.25,10.34-26.63,21.16-47,23.79-43.12,1.38,2-.17,3.24.79,3.59s.54-1.57,2.91-2.24c2.71-.76,2,7.12-.93,19.43l.14,0c2.33-.57,1.69,5.73-1,15.7,10.88-17.83,20.12-29.48,21.79-26.08,1.09,2.21-.61,3.18.29,3.66s.76-1.47,3.19-1.81c2.89-.39.9,7.92-4.14,20.43,1.42-1,2.38-1.11,2.74-.23.84,2.05-.75,2.81,0,3.3s.77-1.28,3-1.42c.75-.05,1.09.52,1.08,1.61,8.7-9.56,15-14.68,15.9-12,.77,2.33-1.06,3.06-.23,3.66s1-1.36,3.42-1.35c3.91,0-3.05,14.3-15,32.72,8.17-7.27,14.06-11.23,15.18-9.58,9.5-7.8,16.08-11.67,16.57-8.95.44,2.42-1.47,2.88-.73,3.6s1.13-1.21,3.57-.86c4.62.67-9,19.34-28.38,40.33,22.88-17.09,42.83-28.62,43-23.95.1,2.46-1.86,2.65-1.22,3.46s1.29-1,3.65-.35c4.49,1.3-11.56,17.91-33.72,36,25-13.75,46.4-22.39,45.93-17.74-.24,2.44-2.2,2.36-1.69,3.25s1.42-.85,3.66.16c2.53,1.14-2.85,6.61-12.75,14l.26.12c2.17,1.06-2.45,5.54-11,11.55,19.61-6.58,34-9.51,33.08-5.85-.58,2.39-2.51,2-2.13,3s1.53-.65,3.61.67c2.43,1.53-4.2,6.49-15.77,12.7,1.75.16,2.59.68,2.3,1.59-.68,2.11-2.39,1.67-2.1,2.55s1.41-.48,3.19.83c.66.48.48,1.22-.41,2.15,12.6-1.68,20.55-1.52,19.5,1.09-.91,2.29-2.78,1.67-2.53,2.67s1.6-.43,3.48,1.16c2.94,2.49-11.1,8.8-31.58,15.15,11.23-.31,18.27.54,17.37,2.71,12,.16,19.3,1.42,17.94,3.79-1.22,2.13-3,1.26-2.87,2.28s1.65-.2,3.28,1.64c3.12,3.48-19.28,9.06-47.66,12.66,28.52,1.61,51.21,5.61,48.35,9.3-1.51,1.94-3.12.84-3.16,1.86s1.65,0,3,2.08c2.6,3.88-20.37,6.29-49,5.9,28,5.56,49.93,12.68,46.59,15.93-1.76,1.72-3.21.4-3.39,1.41s1.63.26,2.7,2.48c1.18,2.44-6.13,3.19-18,2.53.89,2.28-6.26,2.66-17.59,1.54,19.86,7.73,33.3,15,30.21,17.22-2,1.46-3.24,0-3.56.92s1.59.49,2.34,2.83c.85,2.66-7,2.29-19.23-.21.85,1,1,1.78.29,2.23-1.87,1.18-2.9-.26-3.24.6s1.39.53,1.92,2.69c.23,1-.72,1.42-2.63,1.43,11,6.92,17.09,12.24,14.58,13.59-2.17,1.17-3.2-.5-3.65.42a.46.46,0,0,0,.12.6H571a7.08,7.08,0,0,0,7.07-7.07V7.07A7.08,7.08,0,0,0,571,0ZM96.94,82.29a3.25,3.25,0,0,1-3.34,3.16H90.35v3.38a3.3,3.3,0,0,1-6.59-.07V85.45H80.4a3.28,3.28,0,0,1-3.24-3.32,3.35,3.35,0,0,1,3.34-3.31h3.25V75.57A3.32,3.32,0,0,1,87,72.19h.1a3.32,3.32,0,0,1,3.25,3.38v3.25h3.34a3.32,3.32,0,0,1,3.25,3.38ZM467.68,358.63h8.22v44.84H476v0a3.86,3.86,0,0,1-1.29,3.09,4.34,4.34,0,0,1-5.9,0,4.27,4.27,0,0,1-1.16-3.11Zm-34.27,5.3c2.95-3.1,6.93-4.52,12.07-4.52s9.11,1.55,12.06,4.52S462,371,462,376.2s-1.55,9.31-4.5,12.28S450.61,393,445.48,393s-9.12-1.55-12.07-4.52-4.49-7.11-4.49-12.28S430.46,367,433.41,363.93Zm-5.18,118.26h36a38.58,38.58,0,0,1,38.7,38.36v17.39h-21V520.55A17.63,17.63,0,0,0,464.23,503h-36Zm-31.79-103v-6.59h6.8V358.76h7.58v45a3.84,3.84,0,0,1-1.16,3.1,3.52,3.52,0,0,1-2.69,1,3.65,3.65,0,0,1-2.7-1.16,4.15,4.15,0,0,1-1-3h0V379.18ZM384,396.75h-2.57c-2.82-.13-4.75-.91-5.9-2.2s-1.55-3.1-1.55-5.68v-9.69c0-3,1.55-4.53,4.63-4.53h8.85c.52,0,.65-.38.65-1v-7.11h-13v-6.59h20.41v16.41q0,4.65-4.62,4.65h-7.57a1.3,1.3,0,0,0-1.42,1.43v4.91a2.47,2.47,0,0,0,2.18,2.71,29,29,0,0,0,10.92-.9,3.42,3.42,0,0,1,1.15-.13,2.72,2.72,0,0,1,2.06.77,2.67,2.67,0,0,1,.77,1.94,3,3,0,0,1-2.18,2.84h0A36,36,0,0,1,384,396.75Zm5.23-273.48a8,8,0,0,1,2.42-6,9.16,9.16,0,0,1,6.61-2.29,8.94,8.94,0,0,1,6.53,2.29,7.88,7.88,0,0,1,2.42,6,8,8,0,0,1-2.42,6,10.57,10.57,0,0,1-13.14,0A8,8,0,0,1,389.22,123.27Zm20.74,27h-1.23a11,11,0,0,1-6.36-2.44,8.59,8.59,0,0,1-2.69-6.68,8.31,8.31,0,0,1,2.78-6.58,10.47,10.47,0,0,1,7.15-2.47,9.3,9.3,0,0,1,6.8,2.47A8.43,8.43,0,0,1,419,141.1h0a8.74,8.74,0,0,1-2.68,6.68A11,11,0,0,1,410,150.22Zm4.33,253.63V358.76h7.82v45.09A4.22,4.22,0,0,1,421,407a3.8,3.8,0,0,1-2.83,1.16,4,4,0,0,1-2.82-1.16,4.73,4.73,0,0,1-1-3.11Zm-.74-297.41h5.81v22.41a3,3,0,0,1-5,2.28,3.07,3.07,0,0,1-.89-2.28v-1.38h-5.37V123h5.46v-3.38h-5.46v-4.48h5.46Zm-27,2.74h8.85v-5H401v5h8.58V114H386.54ZM352.29,119a24.21,24.21,0,0,0,4.92-1.74,12.32,12.32,0,0,0,4.47-3.29h-9.84v-4.57h10.91v-4.94h5.72v4.94h10.91V114h-9.74a11.85,11.85,0,0,0,4.38,3.29,18.73,18.73,0,0,0,4.92,1.74,2.06,2.06,0,0,1,1.88,2.1,2.13,2.13,0,0,1-.72,1.56,2.16,2.16,0,0,1-1.88.55,25.63,25.63,0,0,1-6.44-1.65,16.29,16.29,0,0,1-6.17-3.66,19.06,19.06,0,0,1-6.26,3.66,23.84,23.84,0,0,1-6.44,1.65,2.08,2.08,0,0,1-1.79-.55,2,2,0,0,1-.62-1.56A2.08,2.08,0,0,1,352.29,119Zm-4.83,6.58H382a2.17,2.17,0,0,1,1.7.74,2.44,2.44,0,0,1,.63,1.73A2.32,2.32,0,0,1,382,130.4h-13.5V134h7.78c1.79,0,2.59.91,2.59,2.83v7.5c0,3.2-1.52,4.85-4.47,4.85H356.85c-3,0-4.47-1.65-4.47-4.85v-7.5c0-1.92.9-2.83,2.59-2.83h7.78V130.4H347.46ZM322.5,365v-6.2h41.34V365h-6.55v7h4a3.35,3.35,0,0,1,2.57.9,2.89,2.89,0,0,1,.9,2.2,3.06,3.06,0,0,1-.9,2.2,3.35,3.35,0,0,1-2.57.9h-38.9v-6.07h6.68v-.13h0v-7Zm-7.23-228.25v-4.84h25.4v4.84h-9.75c.9,3.3,4,6.13,9.48,8.6h0a2.38,2.38,0,0,1,1.52,2.29c0,1.28-.72,1.92-2.15,1.92a1.86,1.86,0,0,1-.62-.09,17.38,17.38,0,0,1-5.64-2.2c-2.95-1.56-4.83-3.2-5.81-4.94q-1.47,2.61-5.63,4.94a21.88,21.88,0,0,1-5.73,2.29c-.17,0-.35.09-.53.09a2.08,2.08,0,0,1-1.52-.55,1.9,1.9,0,0,1-.54-1.37,2.34,2.34,0,0,1,1.52-2.2c5.37-2.47,8.59-5.39,9.48-8.78Zm15.66,131.52a5.62,5.62,0,0,1,11.23.12v.06a5.6,5.6,0,0,1-5.62,5.58h-.05a5.6,5.6,0,0,1-5.56-5.64Zm3.56-161.79h5.82v8.14h5.81v5H340.4v-.09h0v7a2.94,2.94,0,0,1-.9,2.29,3,3,0,0,1-4.11,0,3.16,3.16,0,0,1-.9-2.29Zm-24.23.64h20v15.36a5.53,5.53,0,0,1-1.25,3.75,5,5,0,0,1-3.58,1.38H315a4.66,4.66,0,0,1-3.49-1.38,5.13,5.13,0,0,1-1.25-3.75Zm-7.41,119.58h5.53v-5.52a5.65,5.65,0,0,1,5.52-5.75h.17a5.66,5.66,0,0,1,5.53,5.75v5.52h5.68a5.68,5.68,0,0,1,5.53,5.76,1,1,0,0,1,0,.17,5.52,5.52,0,0,1-5.68,5.35h-5.53v5.75a5.61,5.61,0,0,1-11.22-.11v-5.64h-5.76a5.61,5.61,0,0,1-5.45-5.75A5.68,5.68,0,0,1,302.85,226.66Zm-4.74,149.93a33,33,0,0,0,10.14,7.63h0a3.42,3.42,0,0,1,2.05,3.11c0,1.81-1,2.71-3.08,2.71a2.76,2.76,0,0,1-1-.13c-2.05-.38-5.13-1.94-9.24-4.65q-7.12-4.85-9.24-9.3c-1.41,3-4.37,6.07-9,9.3-4,2.71-7.19,4.26-9.62,4.78h-.9a2.65,2.65,0,0,1-2.19-.9,3.09,3.09,0,0,1-.9-2.07,3.25,3.25,0,0,1,2.06-3,36.07,36.07,0,0,0,10.65-7.88A20.91,20.91,0,0,0,283.35,362v-2.32h8.73V362C292.08,367.29,294.14,372.2,298.11,376.59Zm-2.44-105H288v14.22a3.86,3.86,0,0,1-1.28,3.1,4.27,4.27,0,0,1-2.95,1.16,4.6,4.6,0,0,1-3-1,4.31,4.31,0,0,1-1.28-3.11V247.25H288V265h7.7Zm-33.7-147h5.19V111.93h-4.92v-4.85h29v4.85H286.3v12.62h3.22a2.34,2.34,0,0,1,1.79.73,2.48,2.48,0,0,1,0,3.29,2.34,2.34,0,0,1-1.79.73H262Zm-3.39,11.34h34.51a2.26,2.26,0,0,1,1.7.73,2.57,2.57,0,0,1,.63,1.74,2.44,2.44,0,0,1-.63,1.73,2.27,2.27,0,0,1-1.7.74H258.58Zm-4.37,109.16h8.47v6.72h12.07v6.59H241.89v-6.59h12.32Zm17.59,26.36a11.08,11.08,0,0,1-3.73,8.66c-2.43,2.2-5.64,3.23-9.62,3.23s-7.19-1-9.63-3.23a11.93,11.93,0,0,1-.45-16.86l.45-.45c2.44-2.2,5.65-3.23,9.63-3.23s7.19,1,9.62,3.23A11.47,11.47,0,0,1,271.8,271.41Zm-24-165.06h5.72v33.38h0a3,3,0,0,1-5,2.29,3,3,0,0,1-.71-2.29Zm-24,3.93c2.06-2.29,4.83-3.38,8.41-3.38a10.76,10.76,0,0,1,8.4,3.38,13.29,13.29,0,0,1,3.13,9.15c0,3.84-1.07,6.95-3.13,9.14a10.64,10.64,0,0,1-8.4,3.39,10.79,10.79,0,0,1-8.41-3.39,13.09,13.09,0,0,1-3.13-9.14A13.12,13.12,0,0,1,223.79,110.28Zm-2.06,180.26H193.36V284h34c3,0,4.49,1.55,4.49,4.52v11.37h0a3.84,3.84,0,0,1-1.29,3.1,4.32,4.32,0,0,1-5.9,0,4.28,4.28,0,0,1-1.29-3.1v-7.62C223.4,291.05,222.89,290.54,221.73,290.54Zm-35-10.47v-6.46h21.95v-5.3h-8.86c-4.62,0-6.8-2.32-6.8-6.85V247.25h16.3v6.46h-8.34v6.21c0,.9.26,1.55.64,1.68a3.44,3.44,0,0,0,1.42.25h8.85v-14.6h20.41v6.46H219.55v6.21c0,.9.26,1.55.64,1.68a3.44,3.44,0,0,0,1.42.25h8.73a3.25,3.25,0,0,1,2.56,5.56,3.24,3.24,0,0,1-2.56.9H218.53a6.25,6.25,0,0,1-1.67-.13v5.43h19.38a3.51,3.51,0,0,1,2.57.9,3.47,3.47,0,0,1,0,4.66,3.32,3.32,0,0,1-2.57.9Zm-4.21-158.36c0-2.38,1.07-3.56,3.31-3.56h9.92a.65.65,0,0,0,.63-.67V112.2H183.19v-4.94h19.05v11.89c0,2.38-1.07,3.57-3.31,3.57h-9.66a.9.9,0,0,0-1,.81.6.6,0,0,0,0,.19v3.57a1.94,1.94,0,0,0,1.61,2,24.74,24.74,0,0,0,3.75.19,35.59,35.59,0,0,0,8.41-.74c3.13-.91,4.65-2.92,4.65-5.94V106.44h5.9v10.33h5.82v5H212.7v17.93a2.94,2.94,0,0,1-2.76,3.11h-.19a3,3,0,0,1-2.06-.82,2.9,2.9,0,0,1-1-2.29v-9.6a10.26,10.26,0,0,1-3.4,2.84c-1.34.64-4,1.18-8,1.46a54,54,0,0,1-7,.27,7.07,7.07,0,0,1-4.56-1.92c-.9-1-1.34-2.65-1.34-4.94Zm-37.56-14.36h5.81v7.78h8.14v-7.78h5.72V117h5.81V106.44h5.82v33.75a2.94,2.94,0,0,1-2.77,3.1h-.18a2.93,2.93,0,0,1-2.06-.83,3.12,3.12,0,0,1-.9-2.28V122h-5.72v5.76h0c0,3.39-1.52,5-4.65,5H149.57c-3.13,0-4.65-1.64-4.65-5Zm-6.26,41.25a2.15,2.15,0,0,1-1.79.74H117.2c-3.13,0-4.65-1.56-4.65-4.76v-4.21c0-2.38,1.07-3.57,3.31-3.57h15a.48.48,0,0,0,.54-.41.71.71,0,0,0,0-.14v-1.64c0-.28-.17-.46-.53-.46h-18v-5h21.82c1.79,0,2.68,1,2.68,2.93V138h0c0,2.38-1.08,3.57-3.31,3.57H119c-.35,0-.53.18-.53.64v1.46a.7.7,0,0,0,.8.74h17.62a2.33,2.33,0,0,1,1.79.73A2.73,2.73,0,0,1,138.66,148.6Zm-7-23.69h0V106.44h5.73v18.47a3.21,3.21,0,0,1-.81,2.29,3.49,3.49,0,0,1-2.06.73,2.79,2.79,0,0,1-2.87-2.71C131.67,125.12,131.67,125,131.68,124.91Zm-17.79-15.73V106.9h5.72v2.28a14.31,14.31,0,0,0,2,7.59,18.44,18.44,0,0,0,5.19,5.58h0a2.53,2.53,0,0,1,1.08,2,2.16,2.16,0,0,1-2.15,2.11,2.37,2.37,0,0,1-1.07-.28,17.88,17.88,0,0,1-4.12-2.65,14.17,14.17,0,0,1-3.57-4.39,13.34,13.34,0,0,1-3.49,4.94,15,15,0,0,1-4.74,3.2,3.06,3.06,0,0,1-.89.18,2.1,2.1,0,0,1-1.61-.64,2,2,0,0,1-.63-1.46,2.7,2.7,0,0,1,1.25-2.11A16.59,16.59,0,0,0,113.89,109.18ZM103.54,78.82h0a3.28,3.28,0,0,1-3.26-3.31v-.1a3.3,3.3,0,1,1,6.59.1v0A3.29,3.29,0,0,1,103.54,78.82Zm25,300.12h-.06a5.6,5.6,0,0,1-5.56-5.64v-.12a5.62,5.62,0,0,1,11.23.12v.06A5.6,5.6,0,0,1,128.53,378.94Zm35.76-36a5.54,5.54,0,0,1-5.69,5.37h-5.53v5.75a5.61,5.61,0,0,1-11.22-.12v-5.63h-5.76a5.6,5.6,0,0,1-5.45-5.75,5.67,5.67,0,0,1,5.69-5.52h5.52v-5.53a5.67,5.67,0,0,1,5.53-5.75h.17a5.66,5.66,0,0,1,5.52,5.75v5.53h5.69a5.67,5.67,0,0,1,5.53,5.75Zm7.77-40.28a6.34,6.34,0,0,1-1.8,4.65,6.16,6.16,0,0,1-4.37,1.68,6.44,6.44,0,0,1-4.49-1.68,5.85,5.85,0,0,1-1.8-4.65V291.31a2.13,2.13,0,0,0-2.44-2.45H114.29V279h51c4.5,0,6.81,2.32,6.81,6.84Zm10.59-31.46a.46.46,0,0,0-.07.07,5.21,5.21,0,0,1-3.85,1.42H104.28V263h33v-8H124.05c-6.8,0-10.27-3.36-10.27-10.2V223.73h24.39v9.7H125.59v9.17c0,1.42.26,2.32.9,2.58a4.06,4.06,0,0,0,2.06.39h13.22V223.73h30.68v9.7H153.57v9.17c0,1.42.26,2.32.9,2.58a4,4,0,0,0,2.05.39h13.1a5.62,5.62,0,0,1,3.85,1.42,4.7,4.7,0,0,1,.07,6.65.46.46,0,0,1-.07.07,5.22,5.22,0,0,1-3.85,1.42H152a13.31,13.31,0,0,1-2.44-.13v8.15h29.14a5.62,5.62,0,0,1,3.85,1.42A4.7,4.7,0,0,1,182.65,271.22Zm68,130.82a6.49,6.49,0,0,1-1.8,4.79,6,6,0,0,1-4.36,1.68,5.63,5.63,0,0,1-4.11-1.55,6.41,6.41,0,0,1-2.06-4.92h0V380a21.45,21.45,0,0,1-7.57,5.3c-2.44,1.16-7.45,2.07-15,2.84a119.85,119.85,0,0,1-15.15.78c-10.39-.26-15.53-5.82-15.53-16.54V336.92h39.15V347h-26.7v24.42c0,3.49,1.67,5.82,5.14,6.72a25.61,25.61,0,0,0,5.39.39c3.59,0,7.57-.26,11.94-.65s7.19-.77,8.47-1.29c3.47-1.29,5.9-2.71,7.19-4.26,1.79-2.07,2.69-5.17,2.69-9.18V335.24h12.33Zm2.31-99.48c-1-1-1.54-2.85-1.54-5.3V286.92h8.47v8.27a2,2,0,0,0,1.72,2.19,1.85,1.85,0,0,0,.47,0h25.41a3.57,3.57,0,0,1,2.57,1,3.92,3.92,0,0,1,0,4.65,3.58,3.58,0,0,1-2.57,1H258.19C255.75,304.11,254,303.59,252.93,302.56Zm60.59,101.55a3.17,3.17,0,0,1-2.44.91H261.53v-6.59h49.55a3.26,3.26,0,0,1,2.44,1A3.45,3.45,0,0,1,313.52,404.11ZM317,381.89h49.55a3.46,3.46,0,0,1,2.57.9,3,3,0,0,1,.9,2.2,2.82,2.82,0,0,1-.9,2.2,3.32,3.32,0,0,1-2.57.9H317Zm8.73,33.21c-1-.78-1.54-2.2-1.54-4.27V405c0-2.59,1.28-3.75,4-3.75h24.52a.69.69,0,0,0,.77-.58.67.67,0,0,0,0-.2v-1.67c0-.52-.26-.65-.77-.65H324.56v-5.94h33.5c2.57,0,3.72,1.16,3.72,3.62v6.84h0c0,1.55-.25,2.72-.9,3.23s-1.66.91-3.33.91H333.28a.67.67,0,0,0-.77.58.61.61,0,0,0,0,.19v1.55c0,.64.39,1,1.16,1h27a3,3,0,0,1,2.43.9,2.82,2.82,0,0,1,.15,4l-.15.14a3.55,3.55,0,0,1-1.39.75H327.88A5.33,5.33,0,0,1,325.71,415.1ZM349.22,525h36v-8.73H370.8c-5,0-8.34-1.73-10-5.13a13.76,13.76,0,0,1-1.22-6V482.19h26.63v10.55H372.49v10c0,1.55.28,2.53,1,2.82a4.55,4.55,0,0,0,2.24.42h12.82a16.26,16.26,0,0,1,1.62-.94V506h0V482.19h33.49v10.55H403v10c0,.1,0,.19,0,.29,0,1.37.31,2.26,1,2.53a4.55,4.55,0,0,0,2.24.42h14.3a6.18,6.18,0,0,1,4.2,1.54l.09.09a5.13,5.13,0,0,1-.09,7.24,5.77,5.77,0,0,1-4.2,1.55h-19.2a14.79,14.79,0,0,1-2.66-.15v8.88h31.81a6.18,6.18,0,0,1,4.2,1.54l.09.09a5.11,5.11,0,0,1-.09,7.23,5.69,5.69,0,0,1-4.2,1.55H349.22ZM407,553.14H360.15v-10.7h55.64c4.91,0,7.43,2.54,7.43,7.46v18.31a6.88,6.88,0,0,1-2,5.06,6.75,6.75,0,0,1-4.77,1.83,7.05,7.05,0,0,1-4.9-1.83,6.38,6.38,0,0,1-2-5.06V555.82C409.63,554,408.79,553.14,407,553.14Zm38.29,58H398.34a38.59,38.59,0,0,1-38.71-38.37V557.92h21v14.83a17.63,17.63,0,0,0,17.69,17.53h29c.1.44.19.89.31,1.32,1.65,6,6.09,13.08,17.61,14.42Zm57.92,4.55a7,7,0,0,1-2,5.2,6.49,6.49,0,0,1-4.76,1.83A6.11,6.11,0,0,1,492,621a6.93,6.93,0,0,1-2.24-5.34V591.59a23.5,23.5,0,0,1-8.27,5.77c-2.66,1.27-8.13,2.26-16.4,3.1a132.42,132.42,0,0,1-16.54.85c-8.8-.22-14.13-3.93-16.09-11a26.18,26.18,0,0,1-.86-7V544.71H474.3v11H445.15V582.3c0,3.8,1.82,6.34,5.61,7.32a27.59,27.59,0,0,0,5.88.42c3.93,0,8.27-.28,13-.7l.31,0c4.58-.42,7.57-.83,8.94-1.38,3.78-1.41,6.44-3,7.85-4.65,2-2.25,2.94-5.63,2.94-10V542.88h13.45Zm6.89-272.35a5.52,5.52,0,0,1-5.69,5.35h-5.52v5.75a5.61,5.61,0,0,1-11.22-.11v-5.64h-5.77a5.6,5.6,0,0,1-5.44-5.75,5.67,5.67,0,0,1,5.69-5.53h5.52v-5.52a5.65,5.65,0,0,1,5.52-5.75h.18a5.65,5.65,0,0,1,5.52,5.75v5.52h5.68a5.69,5.69,0,0,1,5.54,5.76C510.07,343.2,510.06,343.26,510.06,343.32Z"/><rect class="cls-1" x="337.27" y="364.96" width="11.94" height="6.98"/><path class="cls-1" d="M316.88,122.63a1.22,1.22,0,0,0,.27,0h6c.81,0,1.17-.37,1.17-1.1V112h-8.23v9.51A1,1,0,0,0,316.88,122.63Z"/><path class="cls-2" d="M90.18,449c.92,0,0-1.49,1.87-2.72,3.88-2.6,6.13,23.25,5.09,52.9-.16,4.57-.4,9.24-.7,13.9-.14,2.22-.3,4.44-.47,6.64,1.15-6.77,2.43-13.6,3.84-20.21,1-4.76,2.08-9.39,3.18-13.81,5.61-22.5,11.93-39.19,14.56-36.29,1.49,1.64.26,2.9,1.16,3.09s.29-1.46,2.31-2.35c3.49-1.54,2.62,15.33-1.15,37.32-.86,5-1.87,10.28-3,15.66-1.41,6.64-3,13.44-4.74,20.12.32-.91.65-1.82,1-2.73,2-5.59,4.15-11.19,6.34-16.6,11.11-27.51,23.68-50.22,26.17-46.26,1.18,1.87-.25,2.9.6,3.25s.56-1.31,2.55-1.88c3-12.31,3.64-20.19.93-19.43-2.37.67-2,2.59-2.91,2.24s.59-1.55-.79-3.59c-2.63-3.86-13.45,16.49-23.79,43.12,5.35-28.1,7-51.14,2.69-49.25-2.25,1-1.57,2.82-2.57,2.61s.37-1.61-1.29-3.44c-3.13-3.45-11,18.2-17.55,46,1.39-28.57-.21-51.6-4.18-49.14-2.09,1.3-1.16,3-2.19,2.95s.14-1.65-1.75-3.22c-2.16-1.8-4.76,5.68-7.06,18.14l.21.13C90.25,447.52,89.25,449,90.18,449Z"/><path class="cls-2" d="M127.44,529.41c3.4-6,6.95-12,10.54-17.74,12.54-20.06,25.46-36.95,31.07-40.77,5-12.51,7-20.82,4.14-20.43-2.43.34-2.28,2.29-3.19,1.81s.8-1.45-.29-3.66c-1.67-3.4-10.91,8.25-21.79,26.08a324.64,324.64,0,0,1-12.33,35.75C133.05,516.74,130.28,523.14,127.44,529.41Z"/><path class="cls-2" d="M141.45,538.16c4.38-5.31,8.92-10.6,13.46-15.63A337.07,337.07,0,0,1,180,497.22c11.93-18.42,18.89-32.7,15-32.72-2.46,0-2.59,1.95-3.42,1.35s1-1.33.23-3.66c-.89-2.71-7.2,2.41-15.9,12-.07,5.69-9.93,25.64-23.12,46.75C149.17,526.66,145.34,532.48,141.45,538.16Z"/><path class="cls-2" d="M194.78,491.27c.68.62,1-1.12,3.18-.88,4.65.51-10.25,21.76-30.1,43.8-2.69,3-5.47,6-8.29,9-1.93,2-3.88,4.05-5.84,6.05,5.24-4.46,10.63-8.88,16-13.05,3.46-2.7,6.89-5.29,10.23-7.73,19.24-14.09,35.41-23.22,35.57-19.24.08,2.22-1.68,2.39-1.11,3.12s1.16-.94,3.29-.32c3.64,1.06-7.76,13.33-24.67,27.68-3.94,3.33-8.17,6.78-12.58,10.23-5.34,4.17-10.94,8.34-16.55,12.35l1.33-.78c5.52-3.22,11.14-6.37,16.69-9.32,26.18-13.92,50.41-23.24,49.78-18.61-.3,2.2-2.06,2.07-1.63,2.88s1.23-.58,3,.14c9.9-7.35,15.28-12.82,12.75-14-2.24-1-3.15.73-3.66-.16s1.45-.81,1.69-3.25c.47-4.65-20.89,4-45.93,17.74,22.16-18.09,38.21-34.7,33.72-36-2.36-.69-3,1.15-3.65.35s1.32-1,1.22-3.46c-.18-4.67-20.13,6.86-43,23.95,19.42-21,33-39.66,28.38-40.33-2.44-.35-2.83,1.57-3.57.86s1.17-1.18.73-3.6c-.49-2.72-7.07,1.15-16.57,8.95a1,1,0,0,1,.15.37C195.79,490.18,194.09,490.65,194.78,491.27Z"/><path class="cls-2" d="M171.67,576.8c6.44-2.4,13-4.71,19.45-6.8,22.43-7.29,43.13-11.92,50-11.27,11.57-6.21,18.2-11.17,15.77-12.7-2.08-1.32-3.22.28-3.61-.67s1.55-.6,2.13-3c.9-3.66-13.47-.73-33.08,5.85a326.93,326.93,0,0,1-32.22,19.31C184.09,570.71,177.87,573.83,171.67,576.8Z"/><path class="cls-2" d="M176.75,592.52c6.77-1.25,13.65-2.38,20.36-3.32a338.41,338.41,0,0,1,35.82-3.28c20.48-6.35,34.52-12.66,31.58-15.15-1.88-1.59-3.23-.17-3.48-1.16s1.62-.38,2.53-2.67c1.05-2.61-6.9-2.77-19.5-1.09-4.2,4.39-24.28,13.17-47.56,20.73C190.06,588.67,183.38,590.67,176.75,592.52Z"/><path class="cls-2" d="M247.74,590.88c.13.91,1.47-.23,3,1.37,3.23,3.38-21.84,10.08-51.22,14.21-4.85.68-9.81,1.29-14.78,1.83l-5.71.59c6.89,0,13.86,0,20.63.26,4.81.17,9.51.42,14,.73,23.22,1.61,40.83,5,38.43,8-1.35,1.76-2.81.76-2.84,1.68s1.49,0,2.72,1.87c2.17,3.25-15.53,5.35-38.7,5.35-4.56,0-9.33-.08-14.2-.25-6.77-.24-13.72-.65-20.58-1.17q2.56.42,5.14.89c5.08.91,10.16,1.89,15.11,2.94,29,6.18,53.56,14.6,50.1,17.75-1.64,1.49-2.91.26-3.1,1.16s1.47.28,2.36,2.31l0,0c11.88.66,19.19-.09,18-2.53-1.07-2.22-2.88-1.47-2.7-2.48s1.63.31,3.39-1.41c3.34-3.25-18.58-10.37-46.59-15.93,28.6.39,51.57-2,49-5.9-1.37-2-3.06-1.06-3-2.08s1.65.08,3.16-1.86c2.86-3.69-19.83-7.69-48.35-9.3,28.38-3.6,50.78-9.18,47.66-12.66-1.63-1.84-3.17-.62-3.28-1.64s1.65-.15,2.87-2.28c1.36-2.37-5.95-3.63-17.94-3.79a1.17,1.17,0,0,0-.05.11C249.22,590.7,247.61,590,247.74,590.88Z"/><path class="cls-2" d="M175,641.53c6.49,2.31,13,4.77,19.31,7.31,22.61,9.14,42,19.26,46,23.95,12.27,2.5,20.08,2.87,19.23.21-.75-2.34-2.65-1.86-2.34-2.83s1.57.54,3.56-.92c3.09-2.27-10.35-9.49-30.21-17.22a335.91,335.91,0,0,1-35.41-5.76C188.48,644.86,181.7,643.25,175,641.53Z"/><path class="cls-2" d="M247.56,693.75c.45-.92,1.48.75,3.65-.42,2.51-1.35-3.63-6.67-14.58-13.59-7,0-27.18-6-48.83-14.74-6.28-2.53-12.67-5.3-18.94-8.14,6,3.4,12,6.95,17.72,10.53A326.91,326.91,0,0,1,217.45,689c5.1,2.11,9.83,3.92,14,5.38h16.22A.46.46,0,0,1,247.56,693.75Z"/><path class="cls-2" d="M160.1,670.86c1.43,1.19,2.86,2.38,4.29,3.59,3.85,3.25,7.66,6.56,11.34,9.87s7.36,6.75,10.74,10H198.2c-6.46-3.49-13.59-7.63-20.86-12.17C171.6,678.59,165.78,674.75,160.1,670.86Z"/><path class="cls-2" d="M156.09,691.58l2.24,2.77h2.52c-4-3.65-7.94-7.42-11.81-11.22C151.41,685.92,153.77,688.74,156.09,691.58Z"/><path class="cls-2" d="M136.64,694.35h.13c-.24-.35-.49-.7-.74-1Z"/><path class="cls-2" d="M23.35,694.35h.77q1.62-2.43,3.27-4.83C26.05,691.13,24.7,692.75,23.35,694.35Z"/><path class="cls-2" d="M2.82,688.61a7.09,7.09,0,0,0,.73,2c3.75-4.09,7.65-8.19,11.57-12.19C11.08,681.9,7,685.32,2.82,688.61Z"/><path class="cls-2" d="M2.69,666.76v.31L5,665.44Z"/><path class="cls-2" d="M2.69,551.73v1q3,2,6,4.08C6.71,555.13,4.69,553.44,2.69,551.73Z"/><path class="cls-2" d="M19.8,544.54c-4.47-5.25-8.89-10.64-13.06-16q-2.07-2.64-4.05-5.27v5.24l2.08,1.87C9.81,534.93,14.88,539.72,19.8,544.54Z"/><path class="cls-2" d="M32.54,534l.28.39c-3.49-5.94-6.91-12-10.09-18-2.8-5.26-5.4-10.43-7.75-15.35C5.63,481.46.41,466.08,4.12,466.59c2.19.3,2.06,2.06,2.87,1.62s-.72-1.3.26-3.29C9,461.38,19.88,476,31.61,496.42c2.16,3.75,4.34,7.7,6.51,11.76,3.17,6,6.3,12.2,9.27,18.41-1-2.55-1.89-5.12-2.8-7.69-1.4-3.93-2.74-7.87-4-11.76-9.17-28.22-14.14-53.69-9.69-52.26,2.11.67,1.68,2.38,2.55,2.1s-.48-1.41.83-3.2a1,1,0,0,1,.28-.27c-5.68-11.45-10.27-18-11.87-15.67-1.38,2,.17,3.24-.79,3.59s-.54-1.57-2.91-2.24c-4.49-1.27.3,21.27,9.49,48.31C18.18,469.09,8.1,454.1,2.69,449.18v28.58c2.53,5.75,5.52,12.08,8.84,18.67-3-4-6-7.74-8.84-11.25v11.47C8.2,502.7,14.34,510,20.47,517.83,24.55,523.05,28.62,528.51,32.54,534Z"/><path class="cls-2" d="M63.11,521.52c-1.25-6.78-2.38-13.66-3.33-20.37-3.42-24.35-4.33-46.35-2.18-51.92-4.17-12.74-8-20.33-9.91-18.18-1.66,1.82-.28,3.23-1.29,3.44s-.32-1.63-2.57-2.62c-3.56-1.57-3,14.17.34,35.73a335.26,335.26,0,0,1,13,34.15C59.26,508.2,61.26,514.88,63.11,521.52Z"/><path class="cls-2" d="M79.46,519.21c0-6.89,0-13.86.26-20.63a334.26,334.26,0,0,1,3.13-36.76c-2.69-21.43-6.49-36.49-9.46-34-1.89,1.58-.73,3.16-1.75,3.23s-.09-1.66-2.19-2.95c-2.47-1.53-4,6.84-4.52,20.28,3.6,5,8.72,26.24,12.11,50.36C78,505.43,78.79,512.36,79.46,519.21Z"/><path class="cls-3" d="M186.58,667.39c-5.74-3.58-11.73-7.13-17.72-10.53,6.27,2.84,12.66,5.61,18.94,8.14,21.65,8.75,41.79,14.78,48.83,14.74,1.91,0,2.86-.47,2.63-1.43-.53-2.16-2.27-1.84-1.92-2.69s1.37.58,3.24-.6c.71-.45.56-1.21-.29-2.23-4-4.69-23.35-14.81-46-23.95-6.29-2.54-12.82-5-19.31-7.31,6.68,1.72,13.46,3.33,20.1,4.74A335.91,335.91,0,0,0,230.53,652c11.33,1.12,18.48.74,17.59-1.54l0,0c-.89-2-2.55-1.41-2.36-2.31s1.46.33,3.1-1.16c3.46-3.15-21.09-11.57-50.1-17.75-5-1.05-10-2-15.11-2.94q-2.58-.46-5.14-.89c6.86.52,13.81.93,20.58,1.17,4.87.17,9.64.25,14.2.25,23.17,0,40.87-2.1,38.7-5.35-1.23-1.84-2.76-1-2.72-1.87s1.49.08,2.84-1.68c2.4-3.09-15.21-6.43-38.43-8-4.48-.31-9.18-.56-14-.73-6.77-.24-13.74-.31-20.63-.26l5.71-.59c5-.54,9.93-1.15,14.78-1.83,29.38-4.13,54.45-10.83,51.22-14.21-1.54-1.6-2.88-.46-3-1.37s1.48-.18,2.51-2.14a1.17,1.17,0,0,1,.05-.11c.9-2.17-6.14-3-17.37-2.71a338.41,338.41,0,0,0-35.82,3.28c-6.71.94-13.59,2.07-20.36,3.32,6.63-1.85,13.31-3.85,19.75-5.94,23.28-7.56,43.36-16.34,47.56-20.73.89-.93,1.07-1.67.41-2.15-1.78-1.31-2.91,0-3.19-.83s1.42-.44,2.1-2.55c.29-.91-.55-1.43-2.3-1.59-6.83-.65-27.53,4-50,11.27-6.44,2.09-13,4.4-19.45,6.8,6.2-3,12.42-6.09,18.4-9.27a326.93,326.93,0,0,0,32.22-19.31c8.59-6,13.21-10.49,11-11.55l-.26-.12c-1.8-.72-2.62.63-3-.14s1.33-.68,1.63-2.88c.63-4.63-23.6,4.69-49.78,18.61-5.55,3-11.17,6.1-16.69,9.32l-1.33.78c5.61-4,11.21-8.18,16.55-12.35,4.41-3.45,8.64-6.9,12.58-10.23C209.91,525.31,221.31,513,217.67,512c-2.13-.62-2.72,1-3.29.32s1.19-.9,1.11-3.12c-.16-4-16.33,5.15-35.57,19.24-3.34,2.44-6.77,5-10.23,7.73-5.33,4.17-10.72,8.59-16,13.05,2-2,3.91-4,5.84-6.05,2.82-3,5.6-6,8.29-9,19.85-22,34.75-43.29,30.1-43.8-2.2-.24-2.5,1.5-3.18.88s1-1.09.54-3.26a1,1,0,0,0-.15-.37c-1.12-1.65-7,2.31-15.18,9.58a337.07,337.07,0,0,0-25.08,25.31c-4.54,5-9.08,10.32-13.46,15.63,3.89-5.68,7.72-11.5,11.31-17.25,13.19-21.11,23.05-41.06,23.12-46.75,0-1.09-.33-1.66-1.08-1.61-2.21.14-2.2,1.91-3,1.42s.81-1.25,0-3.3c-.36-.88-1.32-.74-2.74.23-5.61,3.82-18.53,20.71-31.07,40.77-3.59,5.75-7.14,11.75-10.54,17.74,2.84-6.27,5.61-12.67,8.15-19a324.64,324.64,0,0,0,12.33-35.75c2.66-10,3.3-16.27,1-15.7l-.14,0c-2,.57-1.71,2.21-2.55,1.88s.58-1.38-.6-3.25c-2.49-4-15.06,18.75-26.17,46.26-2.19,5.41-4.32,11-6.34,16.6-.33.91-.66,1.82-1,2.73,1.72-6.68,3.33-13.48,4.74-20.12,1.15-5.38,2.16-10.65,3-15.66,3.77-22,4.64-38.86,1.15-37.32-2,.89-1.41,2.54-2.31,2.35s.33-1.45-1.16-3.09c-2.63-2.9-9,13.79-14.56,36.29-1.1,4.42-2.17,9.05-3.18,13.81C98.4,506.13,97.12,513,96,519.73c.17-2.2.33-4.42.47-6.64.3-4.66.54-9.33.7-13.9,1-29.65-1.21-55.5-5.09-52.9-1.85,1.23-1,2.75-1.87,2.72s.07-1.49-1.68-2.85l-.21-.13c-1.88-.92-3.84,5.42-5.44,15.79a334.26,334.26,0,0,0-3.13,36.76c-.23,6.77-.31,13.74-.26,20.63-.67-6.85-1.48-13.78-2.42-20.49-3.39-24.12-8.51-45.33-12.11-50.36-.78-1.1-1.49-1.43-2.09-.85-1.6,1.53-.46,2.87-1.37,3S61.28,449,59.32,448c-.71-.37-1.28.08-1.72,1.23-2.15,5.57-1.24,27.57,2.18,51.92.95,6.71,2.08,13.59,3.33,20.37-1.85-6.64-3.85-13.32-6-19.77a335.26,335.26,0,0,0-13-34.15c-4.35-9.49-8-15.14-9.61-14.09a1,1,0,0,0-.28.27c-1.31,1.79,0,2.91-.83,3.2s-.44-1.43-2.55-2.1c-4.45-1.43.52,24,9.69,52.26,1.26,3.89,2.6,7.83,4,11.76.91,2.57,1.85,5.14,2.8,7.69-3-6.21-6.1-12.43-9.27-18.41-2.17-4.06-4.35-8-6.51-11.76C19.88,476,9,461.38,7.25,464.92c-1,2,.56,2.86-.26,3.29s-.68-1.32-2.87-1.62C.41,466.08,5.63,481.46,15,501c2.35,4.92,4.95,10.09,7.75,15.35,3.18,6,6.6,12.06,10.09,18l-.28-.39c-3.92-5.47-8-10.93-12.07-16.15C14.34,510,8.2,502.7,2.69,496.65v26.64q2,2.63,4.05,5.27c4.17,5.34,8.59,10.73,13.06,16-4.92-4.82-10-9.61-15-14.14l-2.08-1.87v23.2c2,1.71,4,3.4,6,5.07q-3-2.06-6-4.08v19.33L0,570.82l2.69,1.52v94.42L5,665.44l-2.27,1.63v20.21a7.31,7.31,0,0,0,.13,1.33c4.13-3.29,8.26-6.71,12.3-10.15-3.92,4-7.82,8.1-11.57,12.19a6.75,6.75,0,0,0,1,1.34,7.13,7.13,0,0,0,5.26,2.36H23.35c1.35-1.6,2.7-3.22,4-4.83q-1.65,2.4-3.27,4.83H136.64l-.61-1c.25.34.5.69.74,1h21.56l-2.24-2.77c-2.32-2.84-4.68-5.66-7.05-8.45,3.87,3.8,7.84,7.57,11.81,11.22h25.62c-3.38-3.28-7-6.65-10.74-10s-7.49-6.62-11.34-9.87c-1.43-1.21-2.86-2.4-4.29-3.59,5.68,3.89,11.5,7.73,17.24,11.32,7.27,4.54,14.4,8.68,20.86,12.17h25.45c-1.67-1.59-3.76-3.4-6.2-5.38A326.91,326.91,0,0,0,186.58,667.39Zm-29.79-54.21c-.37,1.2-3.76,2.36-8.66,3.17,3.88.95,6.74,2,7.79,3.09.43.42.56.83.32,1.22-.61,1-1.13.39-1.19.94,0,.29.12.29.33.38a1.17,1.17,0,0,1,.64.8.72.72,0,0,1,0,.41.78.78,0,0,1,0,.14c-.5,1.15-4,1.83-9,1.95,3.68,1.48,6.34,3,7.26,4.12.39.49.46.92.17,1.28-.75.93-1.17.24-1.31.77s.57.13.79,1.3a.68.68,0,0,1-.08.51,2.05,2.05,0,0,1-1.4.77,13.42,13.42,0,0,1-3,.26,43.58,43.58,0,0,1-4.85-.32c3.38,1.94,5.8,3.74,6.58,5,.36.57.39,1,0,1.36-.88.81-1.2.07-1.41.58s.54.21.6,1.4a.72.72,0,0,1-.12.46c-.67,1-4,.76-8.62-.39l-.65-.16c1.19.93,2.24,1.81,3.12,2.62a12.39,12.39,0,0,1,2.66,3.19c.31.65.29,1.15-.12,1.43-1,.68-1.19-.1-1.47.38s.51.28.4,1.46a.74.74,0,0,1-.14.4c-.76,1-4.36.2-9.15-1.79a27.87,27.87,0,0,1,4.58,5.74,6.79,6.79,0,0,1,.31.72,1.76,1.76,0,0,1,.11,1,.72.72,0,0,1-.4.5c-1.06.54-1.17-.27-1.51.17s.47.35.2,1.51a.83.83,0,0,1-.16.31c-.81,1-4.3-.3-8.84-3,2.14,2.93,3.57,5.41,3.91,6.94.19.84,0,1.4-.47,1.57a1.57,1.57,0,0,1-.64.11c-.51,0-.58-.44-.88-.15s.12.39.1,1a1.52,1.52,0,0,1-.12.56.65.65,0,0,1-.15.24c-.87,1-4.18-.78-8.39-4.14a24.45,24.45,0,0,1,2.89,7.27c.11,1-.09,1.54-.66,1.65-1.17.22-1-.58-1.5-.26s.35.47-.23,1.51a.61.61,0,0,1-.12.16.75.75,0,0,1-.46.23,2.93,2.93,0,0,1-1.67-.52,28.21,28.21,0,0,1-5.67-4.92,25.43,25.43,0,0,1,1.86,7.43c0,1.06-.28,1.68-.89,1.71-1.2.06-1-.72-1.45-.46s.28.5-.44,1.46l-.07.07c-.7.72-2.25-.31-4.21-2.53-.78-.88-1.63-1.95-2.51-3.17l-.34-.47a26.64,26.64,0,0,1,.82,7.42c-.12,1.17-.49,1.81-1.14,1.76-1.19-.11-.85-.85-1.37-.66s.21.54-.64,1.38h0c-1.12,1.09-3.57-1.95-6.22-7,.12,1.52.16,2.9.14,4.1a17.27,17.27,0,0,1-.31,3.17,1.42,1.42,0,0,1,0,.22c-.28,1.13-.74,1.7-1.37,1.55-1.16-.27-.72-.95-1.27-.84s.1.54-.74,1.23a.2.2,0,0,0-.07.06c-1.26.94-3.27-2.41-5.18-7.83a29.43,29.43,0,0,1-1.11,7c-.35,1-.76,1.64-1.23,1.79a.72.72,0,0,1-.5,0,1.37,1.37,0,0,1-.64-.43c-.25-.32-.12-.61-.5-.58s0,.51-.82,1.05l-.17.11c-1.38.76-2.9-2.84-4-8.48a30.79,30.79,0,0,1-2,6.54c-.69,1.43-1.39,2.09-2.06,1.72-1-.58-.44-1.12-1-1.16s-.14.44-.81.85l0,0a1.57,1.57,0,0,1-.29.14.77.77,0,0,1-.8-.15c-1-.83-1.74-4.18-2-8.8a32.09,32.09,0,0,1-2.73,6c-.92,1.45-1.76,2.09-2.4,1.6-.95-.72-.28-1.16-.82-1.28s-.21.39-.87.7a1.44,1.44,0,0,1-.4.13c-.73.17-1.22-.63-1.48-2.13a19.86,19.86,0,0,1-.23-3.07c0-1.2,0-2.56.17-4.06a33.81,33.81,0,0,1-3.39,5.39c-1.19,1.45-2.17,2-2.76,1.44-.84-.84-.11-1.19-.63-1.38s-.29.29-.84.52a1.64,1.64,0,0,1-.53.13c-1.57.14-1.5-3.76-.25-9.35v0a40.37,40.37,0,0,1-3.24,4l-.71.71c-1.45,1.38-2.57,1.89-3.09,1.19-.71-1,.06-1.2-.43-1.46s-.33.2-.81.38a1.58,1.58,0,0,1-.64.08c-1.57-.09-1-4,1.07-9.34a36,36,0,0,1-4.38,4,7.58,7.58,0,0,1-2.13,1.2c-.57.17-1,.1-1.22-.23l-.07-.08c-.57-1,.23-1.18-.22-1.51-.3-.22-.35.09-.73.23a1.44,1.44,0,0,1-.77,0c-1.54-.3-.39-4,2.36-9.09a36.62,36.62,0,0,1-4.73,3.25c-2,1.1-3.33,1.36-3.66.49-.43-1.11.38-1.13,0-1.52l-.11-.08c-.18-.08-.29.08-.54.18a1.36,1.36,0,0,1-.87-.06.66.66,0,0,1-.22-.12c-1.08-.8.58-4.2,3.81-8.56a36.57,36.57,0,0,1-5,2.5c-2.21.87-3.65,1-3.86,0-.26-1.16.54-1.07.2-1.51-.18-.23-.3-.11-.52,0a1.19,1.19,0,0,1-1-.14c-.54-.28-.55-.93-.14-1.87a12.4,12.4,0,0,1,1.39-2.23,41.13,41.13,0,0,1,3.52-4,38.33,38.33,0,0,1-5.15,1.75c-2.37.59-3.87.5-3.95-.47-.1-1.19.69-1,.41-1.46-.11-.2-.22-.18-.38-.14a1.14,1.14,0,0,1-1.09-.25c-1.21-.84,1-3.5,5-6.71l.81-.63a42.26,42.26,0,0,1-4.18.86c-.37.06-.73.11-1.06.14-2.5.27-4,0-3.95-1,.07-1.19.82-.88.61-1.39-.07-.18-.16-.2-.27-.2a1.15,1.15,0,0,1-1.13-.39c-1.16-1.07,1.8-3.63,6.81-6.46a40.12,40.12,0,0,1-5.27.27,9.14,9.14,0,0,1-3-.45c-.57-.22-.88-.53-.88-.93a1,1,0,0,1,0-.17c.23-1.16.93-.75.8-1.29,0-.16-.11-.21-.2-.23a1.18,1.18,0,0,1-1.11-.54c-1-1.23,2.29-3.35,7.64-5.45a39.06,39.06,0,0,1-5.23-.47c-2.52-.42-3.92-1.12-3.6-2.06.39-1.13,1-.62,1-1.17,0-.17-.07-.23-.17-.26h0a1.22,1.22,0,0,1-1-.69.7.7,0,0,1-.1-.36c-.08-1.27,3.32-2.76,8.43-4a39.77,39.77,0,0,1-5.15-1.2c-2.42-.78-3.69-1.66-3.24-2.54.54-1.06,1.1-.47,1.12-1a.26.26,0,0,0-.17-.3,1.15,1.15,0,0,1-.87-.81c-.28-.66.34-1.25,1.64-1.76a17,17,0,0,1,2.88-.77c1.25-.24,2.71-.45,4.33-.6a39.51,39.51,0,0,1-5-1.94c-2.24-1.09-3.35-2.13-2.78-2.93.68-1,1.15-.31,1.25-.86,0-.24-.06-.28-.23-.36a1.12,1.12,0,0,1-.65-.87c-.41-1.53,3.46-2.13,9.21-1.87l-1.1-.55a34.29,34.29,0,0,1-3.68-2.13l-.39-.27c-1.73-1.25-2.5-2.3-1.88-3,.82-.87,1.19-.15,1.36-.68.1-.28-.07-.31-.27-.46a1.17,1.17,0,0,1-.43-.89c-.19-1.56,3.72-1.62,9.37-.56a38.72,38.72,0,0,1-4.47-3.42c-1.29-1.19-2-2.19-2-2.86a.74.74,0,0,1,.29-.55,1.55,1.55,0,0,1,.48-.28c.55-.2.77.2,1-.2s-.1-.33-.3-.61a1.27,1.27,0,0,1-.21-.82c0-1.58,3.91-1.1,9.37.74a36.69,36.69,0,0,1-4.07-4.14c-1.39-1.74-1.87-3-1.08-3.48,1-.61,1.19.19,1.5-.27s-.11-.36-.26-.75a1.4,1.4,0,0,1,0-.74s0,0,0,0c.08-.39.4-.61.91-.68,1.46-.18,4.48.87,8.24,2.75a35.12,35.12,0,0,1-3.54-4.84c-1.05-1.81-1.31-3.07-.48-3.41,1.09-.47,1.14.34,1.52-.07s-.13-.37-.18-.89a1.76,1.76,0,0,1,.08-.63c.31-1,2-.66,4.43.61,1,.53,2.18,1.23,3.43,2.05l.94.64a35.08,35.08,0,0,1-2.93-5.5c-.71-1.83-.75-3,.09-3.24,1.15-.31,1.09.5,1.51.15s-.11-.41,0-1a1.81,1.81,0,0,1,.15-.5c.67-1.43,4,.59,8.25,4.48a38.52,38.52,0,0,1-1.93-5.1c-.1-.34-.18-.66-.25-1a7.07,7.07,0,0,1-.2-1.74c0-.73.28-1.17.78-1.23,1.19-.15,1,.65,1.48.36s-.12-.44.14-1.13a2.57,2.57,0,0,1,.19-.36c.86-1.32,3.9,1.15,7.55,5.59a32.08,32.08,0,0,1-1.33-6.55c-.09-1.68.22-2.65,1-2.63a1.9,1.9,0,0,1,.46.06c.65.19.53.69.95.5s.13-.32.16-.67a1.11,1.11,0,0,1,.2-.51,2.79,2.79,0,0,1,.17-.25c1-1.18,3.7,1.68,6.7,6.58a29.46,29.46,0,0,1-.38-6.89c.16-1.52.59-2.36,1.34-2.24,1.17.19.79.91,1.32.75s-.1-.51.59-1.21l.14-.12a.87.87,0,0,1,1.11,0,5.67,5.67,0,0,1,1.49,1.57A33.55,33.55,0,0,1,71.78,549a28.69,28.69,0,0,1,.64-7.11c.37-1.34.9-2,1.58-1.81,1.14.35.66,1,1.2.93s-.06-.55.85-1.18l.06,0c1.21-.79,2.8,2.09,4.24,6.84.13.43.25.88.38,1.34.18-1.31.38-2.5.61-3.56a18.26,18.26,0,0,1,1.1-3.59c.53-1.14,1.12-1.67,1.73-1.38,1.08.51.51,1.09,1.06,1.09s0-.58,1.07-1.08h0c1.41-.61,2.67,3.08,3.41,8.75a26.31,26.31,0,0,1,2.8-7,4.18,4.18,0,0,1,.29-.38c.41-.5.82-.74,1.19-.69a.74.74,0,0,1,.31.12c1,.65.36,1.14.9,1.22s.07-.58,1.21-.92a.25.25,0,0,1,.12,0c1.43-.23,2.13,3.55,2.07,9.15a25,25,0,0,1,3.88-6.69c.71-.72,1.32-1,1.78-.55.89.78.19,1.18.72,1.33.13,0,.2,0,.26,0s.17-.58,1.06-.72a.83.83,0,0,1,.22,0l.08,0c1.28.29,1.4,4,.6,9.34,1.88-3,3.62-5.26,4.9-6.18.74-.54,1.33-.64,1.71-.21.78.9,0,1.2.53,1.42s.22-.53,1.41-.55a.88.88,0,0,1,.29,0c.52.19.75,1,.73,2.16a19.05,19.05,0,0,1-.44,3.3c-.24,1.16-.57,2.46-1,3.87,2.35-2.83,4.44-4.82,5.84-5.5.74-.36,1.3-.36,1.59.1.65,1-.14,1.19.33,1.48s.29-.5,1.48-.35a.78.78,0,0,1,.34.13c1,.72.13,4.32-2.06,9.1.51-.46,1-.89,1.48-1.29a29.78,29.78,0,0,1,3.19-2.4,8.44,8.44,0,0,1,2-1c.73-.22,1.24-.12,1.45.35.5,1.08-.3,1.16.12,1.51s.36-.45,1.51-.14a.66.66,0,0,1,.37.22c.85.93-.56,4.32-3.35,8.68,3.19-2.17,5.84-3.53,7.35-3.71a2.59,2.59,0,0,1,.63,0,.79.79,0,0,1,.65.56,1.15,1.15,0,0,1,.06.29c.14.84-.49.85-.15,1.23s.42-.4,1.52.06a.75.75,0,0,1,.36.32c.63,1.09-1.24,4.21-4.56,8.08,3.52-1.73,6.38-2.72,7.88-2.64.65,0,1,.27,1.11.73.18,1.18-.62,1-.31,1.49s.43-.09,1.06.09a1.94,1.94,0,0,1,.44.19.74.74,0,0,1,.33.41,1.18,1.18,0,0,1,0,.2c.12,1.28-2.11,4-5.69,7.13,3.77-1.24,6.77-1.83,8.22-1.52.6.13.94.41.95.87,0,1.19-.76.94-.52,1.44s.52-.27,1.44.48a.77.77,0,0,1,.28.48c.08.55-.39,1.34-1.3,2.28a23.45,23.45,0,0,1-2.8,2.4c-.76.56-1.6,1.15-2.51,1.76,3.94-.71,7-.87,8.37-.34.56.21.84.53.78,1-.15,1.18-.87.82-.7,1.35s.55-.19,1.36.68a.71.71,0,0,1,.2.53c0,1.26-3,3.31-7.46,5.44.78,0,1.52,0,2.22,0a26.81,26.81,0,0,1,3.88.24,7,7,0,0,1,2.27.63c.51.29.75.65.63,1.08-.31,1.15-1,.69-.89,1.24s.57-.12,1.25.86a.67.67,0,0,1,.13.56c-.2,1.24-3.4,2.85-8.13,4.34,4,.4,7,1.1,8.16,2l.2.17a.84.84,0,0,1,.27,1l-.06.13c-.46.91-1,.44-1,1s.58,0,1.12,1A.71.71,0,0,1,156.79,613.18Z"/><path class="cls-4" d="M155.62,611.58c0-.53.53-.06,1-1l.06-.13a.84.84,0,0,0-.27-1l-.2-.17c-1.17-.89-4.17-1.59-8.16-2,4.73-1.49,7.93-3.1,8.13-4.34a.67.67,0,0,0-.13-.56c-.68-1-1.15-.32-1.25-.86s.58-.09.89-1.24c.12-.43-.12-.79-.63-1.08a7,7,0,0,0-2.27-.63,26.81,26.81,0,0,0-3.88-.24c-.7,0-1.44,0-2.22,0,4.49-2.13,7.44-4.18,7.46-5.44a.71.71,0,0,0-.2-.53c-.81-.87-1.19-.16-1.36-.68s.55-.17.7-1.35c.06-.45-.22-.77-.78-1-1.37-.53-4.43-.37-8.37.34.91-.61,1.75-1.2,2.51-1.76a23.45,23.45,0,0,0,2.8-2.4c.91-.94,1.38-1.73,1.3-2.28a.77.77,0,0,0-.28-.48c-.92-.75-1.2,0-1.44-.48s.53-.25.52-1.44c0-.46-.35-.74-.95-.87-1.45-.31-4.45.28-8.22,1.52,3.58-3.16,5.81-5.85,5.69-7.13a1.18,1.18,0,0,0,0-.2.74.74,0,0,0-.33-.41,1.94,1.94,0,0,0-.44-.19c-.63-.18-.8.3-1.06-.09s.49-.31.31-1.49c-.07-.46-.46-.7-1.11-.73-1.5-.08-4.36.91-7.88,2.64,3.32-3.87,5.19-7,4.56-8.08a.75.75,0,0,0-.36-.32c-1.1-.46-1.15.35-1.52-.06s.29-.39.15-1.23a1.15,1.15,0,0,0-.06-.29.79.79,0,0,0-.65-.56,2.59,2.59,0,0,0-.63,0c-1.51.18-4.16,1.54-7.35,3.71,2.79-4.36,4.2-7.75,3.35-8.68a.66.66,0,0,0-.37-.22c-1.15-.31-1.09.5-1.51.14s.38-.43-.12-1.51c-.21-.47-.72-.57-1.45-.35a8.44,8.44,0,0,0-2,1,29.78,29.78,0,0,0-3.19,2.4c-.48.4-1,.83-1.48,1.29,2.19-4.78,3.11-8.38,2.06-9.1a.78.78,0,0,0-.34-.13c-1.19-.15-1,.65-1.48.35s.32-.48-.33-1.48c-.29-.46-.85-.46-1.59-.1-1.4.68-3.49,2.67-5.84,5.5.42-1.41.75-2.71,1-3.87a19.05,19.05,0,0,0,.44-3.3c0-1.2-.21-2-.73-2.16a.88.88,0,0,0-.29,0c-1.19,0-.91.78-1.41.55s.25-.52-.53-1.42c-.38-.43-1-.33-1.71.21-1.28.92-3,3.14-4.9,6.18.8-5.3.68-9-.6-9.34l-.08,0a.83.83,0,0,0-.22,0c-.89.14-.89.58-1.06.72s-.13.06-.26,0c-.53-.15.17-.55-.72-1.33-.46-.4-1.07-.17-1.78.55a25,25,0,0,0-3.88,6.69c.06-5.6-.64-9.38-2.07-9.15a.25.25,0,0,0-.12,0c-1.14.34-.66,1-1.21.92s.1-.57-.9-1.22a.74.74,0,0,0-.31-.12c-.37,0-.78.19-1.19.69a4.18,4.18,0,0,0-.29.38,26.31,26.31,0,0,0-2.8,7c-.74-5.67-2-9.36-3.41-8.75h0c-1.08.5-.51,1.08-1.07,1.08s0-.58-1.06-1.09c-.61-.29-1.2.24-1.73,1.38a18.26,18.26,0,0,0-1.1,3.59c-.23,1.06-.43,2.25-.61,3.56-.13-.46-.25-.91-.38-1.34-1.44-4.75-3-7.63-4.24-6.84l-.06,0c-.91.63-.31,1.11-.85,1.18s-.06-.58-1.2-.93c-.68-.21-1.21.47-1.58,1.81a28.69,28.69,0,0,0-.64,7.11,33.55,33.55,0,0,0-3.11-5.87,5.67,5.67,0,0,0-1.49-1.57.87.87,0,0,0-1.11,0l-.14.12c-.69.7-.09,1.07-.59,1.21s-.15-.56-1.32-.75c-.75-.12-1.18.72-1.34,2.24a29.46,29.46,0,0,0,.38,6.89c-3-4.9-5.66-7.76-6.7-6.58a2.79,2.79,0,0,0-.17.25,1.11,1.11,0,0,0-.2.51c0,.35.17.52-.16.67s-.3-.31-.95-.5a1.9,1.9,0,0,0-.46-.06c-.79,0-1.1.95-1,2.63a32.08,32.08,0,0,0,1.33,6.55c-3.65-4.44-6.69-6.91-7.55-5.59a2.57,2.57,0,0,0-.19.36c-.26.69.27.87-.14,1.13s-.29-.51-1.48-.36c-.5.06-.75.5-.78,1.23a7.07,7.07,0,0,0,.2,1.74c.07.31.15.63.25,1a38.52,38.52,0,0,0,1.93,5.1c-4.23-3.89-7.58-5.91-8.25-4.48a1.81,1.81,0,0,0-.15.5c-.08.61.38.73,0,1s-.36-.46-1.51-.15c-.84.22-.8,1.41-.09,3.24a35.08,35.08,0,0,0,2.93,5.5l-.94-.64c-1.25-.82-2.41-1.52-3.43-2.05-2.45-1.27-4.12-1.6-4.43-.61a1.76,1.76,0,0,0-.08.63c.05.52.46.58.18.89s-.43-.4-1.52.07c-.83.34-.57,1.6.48,3.41a35.12,35.12,0,0,0,3.54,4.84c-3.76-1.88-6.78-2.93-8.24-2.75-.51.07-.83.29-.91.68,0,0,0,0,0,0a1.4,1.4,0,0,0,0,.74c.15.39.48.42.26.75s-.47-.34-1.5.27c-.79.47-.31,1.74,1.08,3.48a36.69,36.69,0,0,0,4.07,4.14c-5.46-1.84-9.34-2.32-9.37-.74a1.27,1.27,0,0,0,.21.82c.2.28.46.29.3.61s-.41,0-1,.2a1.55,1.55,0,0,0-.48.28.74.74,0,0,0-.29.55c0,.67.67,1.67,2,2.86a38.72,38.72,0,0,0,4.47,3.42c-5.65-1.06-9.56-1-9.37.56a1.17,1.17,0,0,0,.43.89c.2.15.37.18.27.46-.17.53-.54-.19-1.36.68-.62.66.15,1.71,1.88,3l.39.27a34.29,34.29,0,0,0,3.68,2.13l1.1.55c-5.75-.26-9.62.34-9.21,1.87a1.12,1.12,0,0,0,.65.87c.17.08.28.12.23.36-.1.55-.57-.11-1.25.86-.57.8.54,1.84,2.78,2.93a39.51,39.51,0,0,0,5,1.94c-1.62.15-3.08.36-4.33.6a17,17,0,0,0-2.88.77c-1.3.51-1.92,1.1-1.64,1.76a1.15,1.15,0,0,0,.87.81.26.26,0,0,1,.17.3c0,.55-.58,0-1.12,1-.45.88.82,1.76,3.24,2.54a39.77,39.77,0,0,0,5.15,1.2c-5.11,1.21-8.51,2.7-8.43,4a.7.7,0,0,0,.1.36,1.22,1.22,0,0,0,1,.69h0c.1,0,.16.09.17.26.06.55-.58,0-1,1.17-.32.94,1.08,1.64,3.6,2.06a39.06,39.06,0,0,0,5.23.47c-5.35,2.1-8.63,4.22-7.64,5.45a1.18,1.18,0,0,0,1.11.54c.09,0,.16.07.2.23.13.54-.57.13-.8,1.29a1,1,0,0,0,0,.17c0,.4.31.71.88.93a9.14,9.14,0,0,0,3,.45,40.12,40.12,0,0,0,5.27-.27c-5,2.83-8,5.39-6.81,6.46a1.15,1.15,0,0,0,1.13.39c.11,0,.2,0,.27.2.21.51-.54.2-.61,1.39-.05,1,1.45,1.27,3.95,1,.33,0,.69-.08,1.06-.14a42.26,42.26,0,0,0,4.18-.86l-.81.63c-4.06,3.21-6.25,5.87-5,6.71a1.14,1.14,0,0,0,1.09.25c.16,0,.27-.06.38.14.28.48-.51.27-.41,1.46.08,1,1.58,1.06,3.95.47a38.33,38.33,0,0,0,5.15-1.75,41.13,41.13,0,0,0-3.52,4,12.4,12.4,0,0,0-1.39,2.23c-.41.94-.4,1.59.14,1.87a1.19,1.19,0,0,0,1,.14c.22-.08.34-.2.52,0,.34.44-.46.35-.2,1.51.21.93,1.65.83,3.86,0a36.57,36.57,0,0,0,5-2.5c-3.23,4.36-4.89,7.76-3.81,8.56a.66.66,0,0,0,.22.12,1.36,1.36,0,0,0,.87.06c.25-.1.36-.26.54-.18l.11.08c.39.39-.42.41,0,1.52.33.87,1.68.61,3.66-.49A36.62,36.62,0,0,0,40.93,661c-2.75,5-3.9,8.79-2.36,9.09a1.44,1.44,0,0,0,.77,0c.38-.14.43-.45.73-.23.45.33-.35.46.22,1.51l.07.08c.24.33.65.4,1.22.23a7.58,7.58,0,0,0,2.13-1.2,36,36,0,0,0,4.38-4c-2,5.39-2.64,9.25-1.07,9.34a1.58,1.58,0,0,0,.64-.08c.48-.18.44-.58.81-.38s-.28.51.43,1.46c.52.7,1.64.19,3.09-1.19l.71-.71a40.37,40.37,0,0,0,3.24-4v0c-1.25,5.59-1.32,9.49.25,9.35a1.64,1.64,0,0,0,.53-.13c.55-.23.42-.68.84-.52s-.21.54.63,1.38c.59.6,1.57,0,2.76-1.44a33.81,33.81,0,0,0,3.39-5.39c-.12,1.5-.18,2.86-.17,4.06a19.86,19.86,0,0,0,.23,3.07c.26,1.5.75,2.3,1.48,2.13a1.44,1.44,0,0,0,.4-.13c.66-.31.41-.8.87-.7s-.13.56.82,1.28c.64.49,1.48-.15,2.4-1.6a32.09,32.09,0,0,0,2.73-6c.28,4.62,1,8,2,8.8a.77.77,0,0,0,.8.15,1.57,1.57,0,0,0,.29-.14l0,0c.67-.41.33-.88.81-.85s0,.58,1,1.16c.67.37,1.37-.29,2.06-1.72a30.79,30.79,0,0,0,2-6.54c1.14,5.64,2.66,9.24,4,8.48l.17-.11c.81-.54.3-1,.82-1.05s.25.26.5.58a1.37,1.37,0,0,0,.64.43.72.72,0,0,0,.5,0c.47-.15.88-.78,1.23-1.79a29.43,29.43,0,0,0,1.11-7c1.91,5.42,3.92,8.77,5.18,7.83a.2.2,0,0,1,.07-.06c.84-.69.22-1.12.74-1.23s.11.57,1.27.84c.63.15,1.09-.42,1.37-1.55a1.42,1.42,0,0,0,0-.22,17.27,17.27,0,0,0,.31-3.17c0-1.2,0-2.58-.14-4.1,2.65,5.09,5.1,8.13,6.22,7h0c.85-.84.12-1.19.64-1.38s.18.55,1.37.66c.65,0,1-.59,1.14-1.76a26.64,26.64,0,0,0-.82-7.42l.34.47c.88,1.22,1.73,2.29,2.51,3.17,2,2.22,3.51,3.25,4.21,2.53l.07-.07c.72-1,0-1.2.44-1.46s.25.52,1.45.46c.61,0,.89-.65.89-1.71a25.43,25.43,0,0,0-1.86-7.43,28.21,28.21,0,0,0,5.67,4.92,2.93,2.93,0,0,0,1.67.52.75.75,0,0,0,.46-.23.61.61,0,0,0,.12-.16c.58-1-.22-1.18.23-1.51s.33.48,1.5.26c.57-.11.77-.7.66-1.65a24.45,24.45,0,0,0-2.89-7.27c4.21,3.36,7.52,5.13,8.39,4.14a.65.65,0,0,0,.15-.24,1.52,1.52,0,0,0,.12-.56c0-.57-.42-.66-.1-1s.37.1.88.15a1.57,1.57,0,0,0,.64-.11c.52-.17.66-.73.47-1.57-.34-1.53-1.77-4-3.91-6.94,4.54,2.68,8,4,8.84,3a.83.83,0,0,0,.16-.31c.27-1.16-.54-1.08-.2-1.51s.45.37,1.51-.17a.72.72,0,0,0,.4-.5,1.76,1.76,0,0,0-.11-1,6.79,6.79,0,0,0-.31-.72,27.87,27.87,0,0,0-4.58-5.74c4.79,2,8.39,2.8,9.15,1.79a.74.74,0,0,0,.14-.4c.11-1.18-.68-1-.4-1.46s.49.3,1.47-.38c.41-.28.43-.78.12-1.43a12.39,12.39,0,0,0-2.66-3.19c-.88-.81-1.93-1.69-3.12-2.62l.65.16c4.61,1.15,8,1.39,8.62.39a.72.72,0,0,0,.12-.46c-.06-1.19-.81-.89-.6-1.4s.53.23,1.41-.58c.35-.32.32-.79,0-1.36-.78-1.28-3.2-3.08-6.58-5a43.58,43.58,0,0,0,4.85.32,13.42,13.42,0,0,0,3-.26,2.05,2.05,0,0,0,1.4-.77.68.68,0,0,0,.08-.51c-.22-1.17-.93-.76-.79-1.3s.56.16,1.31-.77c.29-.36.22-.79-.17-1.28-.92-1.17-3.58-2.64-7.26-4.12,5-.12,8.52-.8,9-1.95a.78.78,0,0,0,0-.14.72.72,0,0,0,0-.41,1.17,1.17,0,0,0-.64-.8c-.21-.09-.36-.09-.33-.38.06-.55.58.08,1.19-.94.24-.39.11-.8-.32-1.22-1-1-3.91-2.14-7.79-3.09,4.9-.81,8.29-2,8.66-3.17a.71.71,0,0,0,0-.57C156.2,611.55,155.64,612.13,155.62,611.58Zm-20.84,2.61c2.47.8,3.81,1.69,3.35,2.51s-.84.51-1,.72a.27.27,0,0,0,0,.15c0,.45.44.09.81.85,0,.05,0,.08.07.14.22.58-.33,1.08-1.46,1.48l-.51.16-.3.09a22.15,22.15,0,0,1-2.68.49c.43.19.83.37,1.21.56,2.26,1.11,3.41,2.15,2.85,2.89s-.93.37-1.08.59a.89.89,0,0,0-.05.13c-.09.45.43.15.69,1a.66.66,0,0,1,.05.15c.16.69-.66,1.13-2.18,1.35a19.28,19.28,0,0,1-3,.15c.46.29.89.57,1.28.84a2.83,2.83,0,0,1,.28.2c.21.15.41.29.58.44,1.37,1.08,1.93,2,1.4,2.51s-1,.21-1.16.46a.26.26,0,0,0,0,.09c-.16.43.4.21.54,1l0,.16c.06.71-.82,1-2.35,1a20.44,20.44,0,0,1-3-.27c.49.4.93.79,1.32,1.16,1.2,1.14,1.88,2.08,1.9,2.71a.68.68,0,0,1-.16.46.57.57,0,0,1-.11.11c-.79.59-1,0-1.24.33l0,0c-.21.4.37.26.4,1.11a.85.85,0,0,1,0,.16c0,.7-.94.9-2.46.7a21.6,21.6,0,0,1-3-.69c.5.55.94,1.06,1.31,1.54,1.28,1.66,1.73,2.86,1,3.27-.91.5-1-.19-1.31.19h0a.23.23,0,0,0-.06.22c0,.16.32.27.31.77a1.11,1.11,0,0,1,0,.17.81.81,0,0,1,0,.15c-.14.7-1.06.77-2.53.36a21,21,0,0,1-2.85-1.1,21.85,21.85,0,0,1,1.22,2c.93,1.69,1.14,2.85.39,3.13-1,.38-1-.33-1.33,0,0,0,0,0,0,.06-.2.27.3.35.11,1.12a1.13,1.13,0,0,1,0,.15c-.12.36-.45.51-.93.48a4.21,4.21,0,0,1-.7-.13,9.37,9.37,0,0,1-.93-.35,21.1,21.1,0,0,1-2.66-1.48,20.89,20.89,0,0,1,1,2.38c.59,1.65.59,2.71-.15,2.88-1,.23-.94-.48-1.32-.18l-.09.1c-.13.22.28.39,0,1.07a1.66,1.66,0,0,1-.06.16c-.32.62-1.23.44-2.52-.36a20.47,20.47,0,0,1-2.44-1.84h0a19.35,19.35,0,0,1,.75,2.78c.28,1.54.11,2.48-.6,2.54-1,.09-.86-.6-1.28-.36-.1.06-.13.11-.14.17s.21.43-.11,1c0,0,0,.09-.09.14-.4.58-1.28.27-2.45-.71a20.62,20.62,0,0,1-2.15-2.15,18.15,18.15,0,0,1,.36,3.16,5.54,5.54,0,0,1-.07,1,2.08,2.08,0,0,1-.2.65.69.69,0,0,1-.68.43c-1-.05-.78-.71-1.23-.53-.18.08-.18.17-.16.31a1,1,0,0,1-.24.79,1.47,1.47,0,0,0-.1.13c-.48.52-1.31.09-2.33-1a21,21,0,0,1-1.84-2.45,17.25,17.25,0,0,1-.12,3.45c-.19,1.2-.59,1.84-1.21,1.72a1.3,1.3,0,0,1-.55-.23c-.32-.24-.25-.53-.55-.47h0c-.28.07-.18.23-.22.49a1,1,0,0,1-.33.54l-.12.12c-.55.44-1.31-.1-2.16-1.35a20,20,0,0,1-1.48-2.67,16,16,0,0,1-.68,3.63c-.35,1-.8,1.48-1.35,1.29-1-.34-.55-.89-1-.84s-.18.27-.36.59a1.15,1.15,0,0,1-.33.35l-.14.1a.74.74,0,0,1-.37.1.85.85,0,0,1-.5-.22,4.12,4.12,0,0,1-1.08-1.52A20.25,20.25,0,0,1,84.82,663a15.24,15.24,0,0,1-1.29,3.71c-.45.79-.93,1.13-1.41.88-.93-.47-.41-1-.9-1s-.18.3-.52.64a2,2,0,0,1-.29.2l-.15.08c-.65.28-1.23-.45-1.7-1.88-.09-.28-.18-.58-.27-.91s-.1-.42-.15-.64c-.09-.44-.19-.92-.27-1.44A14.32,14.32,0,0,1,76,666.34c-.52.6-1,.82-1.4.53-.86-.6-.28-1-.76-1.1s-.19.32-.69.62l-.23.1a1.56,1.56,0,0,1-.16,0c-.68.19-1.15-.61-1.42-2.1a20.28,20.28,0,0,1-.27-3.05,19.72,19.72,0,0,1-1.77,2.68,7,7,0,0,1-.64.67l-.12.1c-.54.44-1,.54-1.33.22-.76-.71-.13-1-.59-1.19s-.21.35-.87.55l-.14,0-.17,0c-.7.08-1.05-.77-1.12-2.27a20.82,20.82,0,0,1,.17-3.07,12.23,12.23,0,0,1-3.13,3.14c-.52.29-.94.29-1.21,0l0-.06a1.1,1.1,0,0,1-.26-.59c0-.32.16-.47-.12-.61s-.26.35-1,.43h-.22c-.71,0-.94-.9-.79-2.4a19.52,19.52,0,0,1,.59-3,11.28,11.28,0,0,1-3.65,2.72c-.5.16-.88.09-1.08-.25-.54-.89.16-1-.24-1.31s-.3.33-1.13.28H52l-.05,0a.64.64,0,0,1-.43-.32,3.24,3.24,0,0,1,0-2.15,18.67,18.67,0,0,1,1-2.9,10.91,10.91,0,0,1-4.08,2.19c-.47.06-.8-.07-.94-.41-.41-1,.3-1-.06-1.33s-.34.29-1.16.12l-.11,0-.06,0c-.67-.2-.65-1.12-.09-2.52l.1-.25c.11-.26.23-.53.38-.82.25-.52.56-1.08.91-1.67-2,1.07-3.53,1.66-4.43,1.6a.74.74,0,0,1-.79-.53c-.27-1,.44-.95.13-1.33s-.38.24-1.16,0L41,647h0c-.63-.3-.48-1.21.26-2.51A19.74,19.74,0,0,1,43,641.93a19,19,0,0,1-2.79.85,7,7,0,0,1-1.07.16,2.83,2.83,0,0,1-.8-.05.74.74,0,0,1-.66-.63c-.12-1,.57-.88.31-1.29s-.41.18-1.14-.21a.55.55,0,0,1-.15-.08l-.05,0c-.52-.4-.24-1.26.65-2.41a18.66,18.66,0,0,1,2.1-2.25c-2.27.5-4,.63-4.79.28a.73.73,0,0,1-.53-.7s0,0,0-.06a1,1,0,0,1,.24-.7c.17-.19.36-.21.24-.47-.18-.42-.43.12-1.1-.36l-.15-.11-.06-.07c-.42-.47,0-1.27,1-2.27a19.76,19.76,0,0,1,2.4-1.94c-2.33.19-4.05.07-4.8-.39a.73.73,0,0,1-.41-.76c.16-1,.79-.69.66-1.15s-.45.06-1-.51a.53.53,0,0,1-.13-.13l-.08-.1,0,0a.67.67,0,0,1,0-.59,3.75,3.75,0,0,1,1.36-1.46,20.36,20.36,0,0,1,2.64-1.58c-2.33-.14-4-.5-4.69-1a.73.73,0,0,1-.31-.81c.31-1,.88-.58.81-1.06s-.44,0-.95-.64c0,0-.08-.09-.12-.15a.75.75,0,0,1-.06-.13c-.22-.56.38-1.2,1.61-1.86q.35-.2.78-.39l.91-.39L34,616c-2.27-.47-3.88-1-4.49-1.69a.75.75,0,0,1-.2-.85c.45-.95.95-.45.95-.93s-.44-.07-.85-.78a1.12,1.12,0,0,1-.1-.16.57.57,0,0,1,0-.14c-.14-.58.55-1.13,1.85-1.62a19.61,19.61,0,0,1,3-.79,15.91,15.91,0,0,1-3.31-1.51,3.42,3.42,0,0,1-.79-.65l-.09-.1a.74.74,0,0,1-.1-.91c.57-.87,1-.31,1.07-.79s-.43-.12-.75-.89L30,604a.7.7,0,0,1,0-.14c-.06-.6.7-1.05,2.07-1.35a19.87,19.87,0,0,1,3-.38c-2-1-3.36-2-3.81-2.77a.76.76,0,0,1,0-1,1.43,1.43,0,0,1,.45-.36c.4-.19.62.08.72-.27a.31.31,0,0,0,0-.09c0-.3-.43-.16-.62-.9a.71.71,0,0,1,0-.17.45.45,0,0,1,0-.11c0-.63.82-1,2.23-1.09a20.55,20.55,0,0,1,3.08.06,10.78,10.78,0,0,1-3.35-3.2.81.81,0,0,1,.1-1c.79-.68,1,0,1.24-.46s-.37-.24-.47-1.06c0-.06,0-.11,0-.18a.22.22,0,0,1,0-.08.61.61,0,0,1,.29-.49,1.78,1.78,0,0,1,.78-.27,6.59,6.59,0,0,1,1.29,0,20.51,20.51,0,0,1,3,.48,11.38,11.38,0,0,1-2.85-3.54c-.17-.5-.12-.88.21-1.09.88-.57,1.05.12,1.3-.29s-.34-.29-.32-1.12c0-.05,0-.11,0-.18v0c.11-.67,1-.81,2.46-.51a19.54,19.54,0,0,1,2.74.83l.21.07-.46-.58a10.56,10.56,0,0,1-1.84-3.2c-.15-.59-.06-1,.33-1.18.95-.44,1,.27,1.33-.1s-.3-.33-.16-1.15a.89.89,0,0,1,0-.14v0c.18-.68,1.1-.69,2.52-.19a19.3,19.3,0,0,1,2.78,1.3,13.19,13.19,0,0,1-1.72-3.92,2.91,2.91,0,0,1,0-.4,1,1,0,0,1,.2-.67.74.74,0,0,1,.31-.19c1-.3,1,.41,1.32.09s-.25-.38,0-1.17a.25.25,0,0,1,0-.07l0-.09c.27-.65,1.19-.54,2.53.17a18.83,18.83,0,0,1,2.57,1.67,14.09,14.09,0,0,1-1.15-4c0-.79.14-1.27.63-1.35,1-.16.91.54,1.31.27a.32.32,0,0,0,.12-.15c0-.19-.24-.4,0-1h0s0-.1.08-.16c.36-.6,1.25-.36,2.47.52a19.6,19.6,0,0,1,2.32,2,15,15,0,0,1-.6-3.89c0-.91.29-1.43.83-1.44,1,0,.82.66,1.25.44s-.1-.4.27-1a.56.56,0,0,0,.05-.08l.1-.15c.31-.38.83-.31,1.48.12a7,7,0,0,1,.88.72l0,0a20.72,20.72,0,0,1,2,2.32,15.91,15.91,0,0,1-.09-3.71c.13-1,.48-1.6,1-1.53,1,.13.72.76,1.18.61s0-.39.35-.9a1.53,1.53,0,0,1,.13-.16l.11-.13c.52-.48,1.31,0,2.25,1.19a21,21,0,0,1,1.67,2.57c0-.64,0-1.23.1-1.77s.09-.81.15-1.17c0-.17.07-.35.11-.51.28-1.17.72-1.77,1.32-1.6,1,.26.6.85,1.08.77s.1-.35.4-.76a1.53,1.53,0,0,1,.22-.23l.13-.11c.58-.4,1.3.18,2.06,1.49a19.88,19.88,0,0,1,1.29,2.77,18.37,18.37,0,0,1,.75-3.12c.37-1,.79-1.62,1.25-1.7a.79.79,0,0,1,.37.05l.24.13c.62.38.29.81.73.79s.18-.28.42-.61a1.4,1.4,0,0,1,.33-.28l.15-.09c.62-.32,1.25.36,1.83,1.76a21.41,21.41,0,0,1,.89,2.93,20.31,20.31,0,0,1,1-2.75c.68-1.37,1.35-2,2-1.65.89.54.34,1,.83,1,.31,0,.24-.18.41-.43a1.12,1.12,0,0,1,.39-.32l.07,0a.59.59,0,0,1,.16-.07.65.65,0,0,1,.39,0c.48.13.88.85,1.17,2a19.55,19.55,0,0,1,.48,3,20.07,20.07,0,0,1,1.27-2.33c.92-1.44,1.74-2.08,2.33-1.61.8.66.2,1,.67,1.15.23.06.26-.06.35-.21a.93.93,0,0,1,.62-.44l.16,0c.69-.14,1.11.69,1.28,2.2h0c0,.33.06.7.07,1.09,0,.59,0,1.25,0,2,.49-.74,1-1.38,1.39-1.91,1.2-1.45,2.17-2.06,2.71-1.48.71.76.06,1.05.51,1.23a.24.24,0,0,0,.25,0,1.11,1.11,0,0,1,.81-.5l.16,0c.71,0,1,.84,1,2.37a21.29,21.29,0,0,1-.38,3c.51-.58,1-1.08,1.44-1.51l.57-.52a7.41,7.41,0,0,1,.83-.62c.8-.51,1.39-.6,1.7-.15.6.85-.08,1,.34,1.29a.27.27,0,0,0,.14,0c.23,0,.26-.4,1-.4h.17c.7.06.87,1,.61,2.48a20.28,20.28,0,0,1-.79,2.94c.5-.43,1-.81,1.42-1.14,1.76-1.29,3-1.75,3.44-1l0,0a1.17,1.17,0,0,1,.16.62c0,.37-.28.49,0,.7l.06,0c.29.15.32-.35,1.09-.24l.17,0c.68.15.72,1.08.26,2.54a20.35,20.35,0,0,1-1.2,2.8c.48-.31.94-.58,1.37-.82,2.07-1.15,3.48-1.46,3.77-.61s-.37,1,0,1.33h0c.31.31.37-.27,1.17,0l.15.05h0a.64.64,0,0,1,.38.39A3.28,3.28,0,0,1,124,579a21.36,21.36,0,0,1-1.57,2.6c.45-.2.88-.39,1.28-.55,2.31-.91,3.83-1.06,4-.15s-.44.93-.24,1.27l0,0c.27.37.4-.22,1.17.13l.15.06c.62.35.4,1.25-.45,2.52-.06.1-.13.19-.2.29s-.35.47-.55.73q-.51.63-1.17,1.35c.43-.13.83-.24,1.22-.34,2.48-.61,4.06-.56,4.11.37s-.51.87-.43,1.19a.41.41,0,0,0,0,.08c.21.4.43-.16,1.14.29l.14.09c.56.43.22,1.29-.8,2.43a20.5,20.5,0,0,1-2.23,2.07l1.14-.15a16.32,16.32,0,0,1,1.74-.1,8.47,8.47,0,0,1,.91,0c1,.11,1.54.43,1.49,1-.08.93-.6.8-.6,1.08a.74.74,0,0,0,0,.12c.16.43.45-.1,1.09.45l.13.1c.5.5,0,1.32-1.13,2.3a19.26,19.26,0,0,1-2.5,1.74H133c2.5.08,4,.52,4,1.35a.76.76,0,0,1,0,.15,1.4,1.4,0,0,1-.15.4c-.23.41-.54.36-.59.56a.36.36,0,0,0,0,.15c.1.44.46,0,1,.59l.11.12c.42.57-.15,1.31-1.44,2.12a21,21,0,0,1-2.71,1.38c.4.05.78.1,1.13.17,2.59.44,4.06,1.14,3.72,2s-.76.62-.86.84a.34.34,0,0,0,0,.15c0,.45.43,0,.89.69l0,.05.08.13a.69.69,0,0,1,.09.3c0,.53-.64,1.08-1.81,1.6a21.08,21.08,0,0,1-2.88,1C134,614,134.42,614.07,134.78,614.19Z"/><path class="cls-3" d="M138.31,611.26a.69.69,0,0,0-.09-.3l-.08-.13,0-.05c-.46-.64-.86-.24-.89-.69a.34.34,0,0,1,0-.15c.1-.22.54,0,.86-.84s-1.13-1.59-3.72-2c-.35-.07-.73-.12-1.13-.17a21,21,0,0,0,2.71-1.38c1.29-.81,1.86-1.55,1.44-2.12l-.11-.12c-.56-.63-.92-.15-1-.59a.36.36,0,0,1,0-.15c.05-.2.36-.15.59-.56a1.4,1.4,0,0,0,.15-.4.76.76,0,0,0,0-.15c0-.83-1.5-1.27-4-1.35h-1.13a19.26,19.26,0,0,0,2.5-1.74c1.16-1,1.63-1.8,1.13-2.3l-.13-.1c-.64-.55-.93,0-1.09-.45a.74.74,0,0,1,0-.12c0-.28.52-.15.6-1.08,0-.56-.5-.88-1.49-1a8.47,8.47,0,0,0-.91,0,16.32,16.32,0,0,0-1.74.1l-1.14.15a20.5,20.5,0,0,0,2.23-2.07c1-1.14,1.36-2,.8-2.43l-.14-.09c-.71-.45-.93.11-1.14-.29a.41.41,0,0,1,0-.08c-.08-.32.48-.23.43-1.19s-1.63-1-4.11-.37c-.39.1-.79.21-1.22.34q.66-.72,1.17-1.35c.2-.26.39-.5.55-.73s.14-.19.2-.29c.85-1.27,1.07-2.17.45-2.52l-.15-.06c-.77-.35-.9.24-1.17-.13l0,0c-.2-.34.43-.29.24-1.27s-1.69-.76-4,.15c-.4.16-.83.35-1.28.55A21.36,21.36,0,0,0,124,579a3.28,3.28,0,0,0,.49-2.16.64.64,0,0,0-.38-.39h0l-.15-.05c-.8-.23-.86.35-1.17,0h0c-.33-.35.38-.35,0-1.33s-1.7-.54-3.77.61c-.43.24-.89.51-1.37.82a20.35,20.35,0,0,0,1.2-2.8c.46-1.46.42-2.39-.26-2.54l-.17,0c-.77-.11-.8.39-1.09.24l-.06,0c-.27-.21,0-.33,0-.7a1.17,1.17,0,0,0-.16-.62l0,0c-.41-.72-1.68-.26-3.44,1-.44.33-.92.71-1.42,1.14a20.28,20.28,0,0,0,.79-2.94c.26-1.5.09-2.42-.61-2.48h-.17c-.71,0-.74.42-1,.4a.27.27,0,0,1-.14,0c-.42-.25.26-.44-.34-1.29-.31-.45-.9-.36-1.7.15a7.41,7.41,0,0,0-.83.62l-.57.52c-.45.43-.93.93-1.44,1.51a21.29,21.29,0,0,0,.38-3c0-1.53-.25-2.41-1-2.37l-.16,0a1.11,1.11,0,0,0-.81.5.24.24,0,0,1-.25,0c-.45-.18.2-.47-.51-1.23-.54-.58-1.51,0-2.71,1.48-.43.53-.9,1.17-1.39,1.91,0-.71,0-1.37,0-2,0-.39,0-.76-.07-1.09h0c-.17-1.51-.59-2.34-1.28-2.2l-.16,0a.93.93,0,0,0-.62.44c-.09.15-.12.27-.35.21-.47-.12.13-.49-.67-1.15-.59-.47-1.41.17-2.33,1.61a20.07,20.07,0,0,0-1.27,2.33,19.55,19.55,0,0,0-.48-3c-.29-1.17-.69-1.89-1.17-2a.65.65,0,0,0-.39,0,.59.59,0,0,0-.16.07l-.07,0a1.12,1.12,0,0,0-.39.32c-.17.25-.1.47-.41.43-.49,0,.06-.5-.83-1-.61-.36-1.28.28-2,1.65a20.31,20.31,0,0,0-1,2.75,21.41,21.41,0,0,0-.89-2.93c-.58-1.4-1.21-2.08-1.83-1.76l-.15.09A1.4,1.4,0,0,0,83,559c-.24.33-.07.6-.42.61s-.11-.41-.73-.79l-.24-.13a.79.79,0,0,0-.37-.05c-.46.08-.88.68-1.25,1.7a18.37,18.37,0,0,0-.75,3.12,19.88,19.88,0,0,0-1.29-2.77c-.76-1.31-1.48-1.89-2.06-1.49l-.13.11a1.53,1.53,0,0,0-.22.23c-.3.41,0,.69-.4.76s-.08-.51-1.08-.77c-.6-.17-1,.43-1.32,1.6,0,.16-.07.34-.11.51q-.09.54-.15,1.17c0,.54-.09,1.13-.1,1.77A21,21,0,0,0,70.69,562c-.94-1.19-1.73-1.67-2.25-1.19l-.11.13a1.53,1.53,0,0,0-.13.16c-.35.51,0,.78-.35.9s-.14-.48-1.18-.61c-.57-.07-.92.49-1,1.53a15.91,15.91,0,0,0,.09,3.71,20.72,20.72,0,0,0-2-2.32l0,0a7,7,0,0,0-.88-.72c-.65-.43-1.17-.5-1.48-.12l-.1.15a.56.56,0,0,1-.05.08c-.37.63.12.84-.27,1s-.21-.46-1.25-.44c-.54,0-.8.53-.83,1.44a15,15,0,0,0,.6,3.89,19.6,19.6,0,0,0-2.32-2c-1.22-.88-2.11-1.12-2.47-.52,0,.06,0,.11-.08.16h0c-.28.59,0,.8,0,1a.32.32,0,0,1-.12.15c-.4.27-.28-.43-1.31-.27-.49.08-.68.56-.63,1.35a14.09,14.09,0,0,0,1.15,4A18.83,18.83,0,0,0,51,571.78c-1.34-.71-2.26-.82-2.53-.17l0,.09a.25.25,0,0,0,0,.07c-.26.79.33.86,0,1.17s-.33-.39-1.32-.09a.74.74,0,0,0-.31.19,1,1,0,0,0-.2.67,2.91,2.91,0,0,0,0,.4A13.19,13.19,0,0,0,48.35,578a19.3,19.3,0,0,0-2.78-1.3c-1.42-.5-2.34-.49-2.52.19v0a.89.89,0,0,0,0,.14c-.14.82.45.8.16,1.15s-.38-.34-1.33.1c-.39.18-.48.59-.33,1.18a10.56,10.56,0,0,0,1.84,3.2l.46.58-.21-.07a19.54,19.54,0,0,0-2.74-.83c-1.45-.3-2.35-.16-2.46.51v0c0,.07,0,.13,0,.18,0,.83.56.74.32,1.12s-.42-.28-1.3.29c-.33.21-.38.59-.21,1.09a11.38,11.38,0,0,0,2.85,3.54,20.51,20.51,0,0,0-3-.48,6.59,6.59,0,0,0-1.29,0,1.78,1.78,0,0,0-.78.27.61.61,0,0,0-.29.49.22.22,0,0,0,0,.08c0,.07,0,.12,0,.18.1.82.66.65.47,1.06s-.45-.22-1.24.46a.81.81,0,0,0-.1,1,10.78,10.78,0,0,0,3.35,3.2,20.55,20.55,0,0,0-3.08-.06c-1.41.11-2.23.46-2.23,1.09a.45.45,0,0,0,0,.11.71.71,0,0,0,0,.17c.19.74.64.6.62.9a.31.31,0,0,1,0,.09c-.1.35-.32.08-.72.27a1.43,1.43,0,0,0-.45.36.76.76,0,0,0,0,1c.45.77,1.82,1.74,3.81,2.77a19.87,19.87,0,0,0-3,.38c-1.37.3-2.13.75-2.07,1.35a.7.7,0,0,0,0,.14l.06.16c.32.77.81.44.75.89s-.5-.08-1.07.79a.74.74,0,0,0,.1.91l.09.1a3.42,3.42,0,0,0,.79.65A15.91,15.91,0,0,0,34.06,609a19.61,19.61,0,0,0-3,.79c-1.3.49-2,1-1.85,1.62a.57.57,0,0,0,0,.14,1.12,1.12,0,0,0,.1.16c.41.71.85.33.85.78s-.5,0-.95.93a.75.75,0,0,0,.2.85c.61.65,2.22,1.22,4.49,1.69l-1.14.42-.91.39q-.43.19-.78.39c-1.23.66-1.83,1.3-1.61,1.86a.75.75,0,0,0,.06.13c0,.06.08.1.12.15.51.64.89.2.95.64s-.5.06-.81,1.06a.73.73,0,0,0,.31.81c.68.55,2.36.91,4.69,1a20.36,20.36,0,0,0-2.64,1.58,3.75,3.75,0,0,0-1.36,1.46.67.67,0,0,0,0,.59l0,0,.08.1a.53.53,0,0,0,.13.13c.59.57.91.07,1,.51s-.5.13-.66,1.15a.73.73,0,0,0,.41.76c.75.46,2.47.58,4.8.39a19.76,19.76,0,0,0-2.4,1.94c-1,1-1.42,1.8-1,2.27l.06.07.15.11c.67.48.92-.06,1.1.36.12.26-.07.28-.24.47a1,1,0,0,0-.24.7s0,0,0,.06a.73.73,0,0,0,.53.7c.82.35,2.52.22,4.79-.28a18.66,18.66,0,0,0-2.1,2.25c-.89,1.15-1.17,2-.65,2.41l.05,0a.55.55,0,0,0,.15.08c.73.39.91-.18,1.14.21s-.43.25-.31,1.29a.74.74,0,0,0,.66.63,2.83,2.83,0,0,0,.8.05,7,7,0,0,0,1.07-.16,19,19,0,0,0,2.79-.85,19.74,19.74,0,0,0-1.76,2.52c-.74,1.3-.89,2.21-.26,2.51h0l.17.06c.78.28.87-.3,1.16,0s-.4.32-.13,1.33a.74.74,0,0,0,.79.53c.9.06,2.46-.53,4.43-1.6-.35.59-.66,1.15-.91,1.67-.15.29-.27.56-.38.82l-.1.25c-.56,1.4-.58,2.32.09,2.52l.06,0,.11,0c.82.17.82-.42,1.16-.12s-.35.37.06,1.33c.14.34.47.47.94.41a10.91,10.91,0,0,0,4.08-2.19,18.67,18.67,0,0,0-1,2.9,3.24,3.24,0,0,0,0,2.15.64.64,0,0,0,.43.32l.05,0h.18c.83,0,.75-.53,1.13-.28s-.3.42.24,1.31c.2.34.58.41,1.08.25A11.28,11.28,0,0,0,58.24,656a19.52,19.52,0,0,0-.59,3c-.15,1.5.08,2.39.79,2.4h.22c.77-.08.63-.63,1-.43s.1.29.12.61a1.1,1.1,0,0,0,.26.59l0,.06c.27.33.69.33,1.21,0a12.23,12.23,0,0,0,3.13-3.14,20.82,20.82,0,0,0-.17,3.07c.07,1.5.42,2.35,1.12,2.27l.17,0,.14,0c.66-.2.46-.68.87-.55s-.17.48.59,1.19c.34.32.79.22,1.33-.22l.12-.1a7,7,0,0,0,.64-.67A19.72,19.72,0,0,0,71,661.39a20.28,20.28,0,0,0,.27,3.05c.27,1.49.74,2.29,1.42,2.1a1.56,1.56,0,0,0,.16,0l.23-.1c.5-.3.3-.69.69-.62s-.1.5.76,1.1c.4.29.88.07,1.4-.53a14.32,14.32,0,0,0,1.91-3.65c.08.52.18,1,.27,1.44,0,.22.1.44.15.64s.18.63.27.91c.47,1.43,1,2.16,1.7,1.88l.15-.08a2,2,0,0,0,.29-.2c.34-.34.15-.65.52-.64s0,.51.9,1c.48.25,1-.09,1.41-.88A15.24,15.24,0,0,0,84.82,663a20.25,20.25,0,0,0,1.09,2.85A4.12,4.12,0,0,0,87,667.4a.85.85,0,0,0,.5.22.74.74,0,0,0,.37-.1l.14-.1a1.15,1.15,0,0,0,.33-.35c.18-.32,0-.56.36-.59s0,.5,1,.84c.55.19,1-.29,1.35-1.29a16,16,0,0,0,.68-3.63,20,20,0,0,0,1.48,2.67c.85,1.25,1.61,1.79,2.16,1.35l.12-.12a1,1,0,0,0,.33-.54c0-.26-.06-.42.22-.49h0c.3-.06.23.23.55.47a1.3,1.3,0,0,0,.55.23c.62.12,1-.52,1.21-1.72a17.25,17.25,0,0,0,.12-3.45,21,21,0,0,0,1.84,2.45c1,1.12,1.85,1.55,2.33,1a1.47,1.47,0,0,1,.1-.13,1,1,0,0,0,.24-.79c0-.14,0-.23.16-.31.45-.18.18.48,1.23.53a.69.69,0,0,0,.68-.43,2.08,2.08,0,0,0,.2-.65,5.54,5.54,0,0,0,.07-1,18.15,18.15,0,0,0-.36-3.16,20.62,20.62,0,0,0,2.15,2.15c1.17,1,2,1.29,2.45.71,0,0,.06-.1.09-.14.32-.55.08-.8.11-1s0-.11.14-.17c.42-.24.24.45,1.28.36.71-.06.88-1,.6-2.54a19.35,19.35,0,0,0-.75-2.78h0a20.47,20.47,0,0,0,2.44,1.84c1.29.8,2.2,1,2.52.36a1.66,1.66,0,0,0,.06-.16c.28-.68-.13-.85,0-1.07l.09-.1c.38-.3.3.41,1.32.18.74-.17.74-1.23.15-2.88a20.89,20.89,0,0,0-1-2.38,21.1,21.1,0,0,0,2.66,1.48,9.37,9.37,0,0,0,.93.35,4.21,4.21,0,0,0,.7.13c.48,0,.81-.12.93-.48a1.13,1.13,0,0,0,0-.15c.19-.77-.31-.85-.11-1.12,0,0,0,0,0-.06.34-.34.36.37,1.33,0,.75-.28.54-1.44-.39-3.13a21.85,21.85,0,0,0-1.22-2,21,21,0,0,0,2.85,1.1c1.47.41,2.39.34,2.53-.36a.81.81,0,0,0,0-.15,1.11,1.11,0,0,0,0-.17c0-.5-.26-.61-.31-.77a.23.23,0,0,1,.06-.22h0c.28-.38.4.31,1.31-.19.74-.41.29-1.61-1-3.27-.37-.48-.81-1-1.31-1.54a21.6,21.6,0,0,0,3,.69c1.52.2,2.43,0,2.46-.7a.85.85,0,0,0,0-.16c0-.85-.61-.71-.4-1.11l0,0c.21-.3.45.26,1.24-.33a.57.57,0,0,0,.11-.11.68.68,0,0,0,.16-.46c0-.63-.7-1.57-1.9-2.71-.39-.37-.83-.76-1.32-1.16a20.44,20.44,0,0,0,3,.27c1.53,0,2.41-.33,2.35-1l0-.16c-.14-.83-.7-.61-.54-1a.26.26,0,0,1,0-.09c.17-.25.49.21,1.16-.46s0-1.43-1.4-2.51c-.17-.15-.37-.29-.58-.44a2.83,2.83,0,0,0-.28-.2c-.39-.27-.82-.55-1.28-.84a19.28,19.28,0,0,0,3-.15c1.52-.22,2.34-.66,2.18-1.35a.66.66,0,0,0-.05-.15c-.26-.81-.78-.51-.69-1a.89.89,0,0,1,.05-.13c.15-.22.52.15,1.08-.59s-.59-1.78-2.85-2.89c-.38-.19-.78-.37-1.21-.56a22.15,22.15,0,0,0,2.68-.49l.3-.09.51-.16c1.13-.4,1.68-.9,1.46-1.48,0-.06-.05-.09-.07-.14-.37-.76-.85-.4-.81-.85a.27.27,0,0,1,0-.15c.13-.21.53.06,1-.72s-.88-1.71-3.35-2.51c-.36-.12-.75-.23-1.16-.34a21.08,21.08,0,0,0,2.88-1C137.67,612.34,138.33,611.79,138.31,611.26Zm-12.68,2.41a1.66,1.66,0,0,1,.19.4,1.2,1.2,0,0,1-.43,1.31,7.58,7.58,0,0,1-2.84,1.43c-.29.09-.59.18-.91.26l-.16,0-.17,0c-.64.16-1.33.31-2.07.44A27,27,0,0,1,121.8,619l0,0,.82.53a7.74,7.74,0,0,1,1.77,1.61c.43.6.53,1.14.21,1.59a1.58,1.58,0,0,1-.29.35.72.72,0,0,1-.44.23c-.2,0-.32,0-.4.27h0c-.11.42.19.28.39.67a1.71,1.71,0,0,1,.16.64,1.08,1.08,0,0,1,0,.36.06.06,0,0,1,0,0c-.15.46-.64.8-1.4,1a7.85,7.85,0,0,1-.86.2,14.91,14.91,0,0,1-2.48.18c-.57,0-1.18,0-1.82-.06l-.46,0-.19,0a26.49,26.49,0,0,1,2.76,2.71c.19.23.36.44.52.65a5.68,5.68,0,0,1,.91,1.69,2,2,0,0,1,.07.52,1.06,1.06,0,0,1-.37.8l-.09.07c-.83.63-1,0-1.23.46a.61.61,0,0,0,0,.12.22.22,0,0,0,0,.16,1,1,0,0,1,.29.78c0,.1,0,.21,0,.34a.25.25,0,0,0,0,.07,1.18,1.18,0,0,1-.86.81,7.32,7.32,0,0,1-3.44-.17c-.26-.06-.52-.12-.79-.2l-.71-.19c-.52-.16-1.07-.34-1.64-.55q.42.62.78,1.2c.09.13.17.27.25.4.24.4.46.79.65,1.16a13.72,13.72,0,0,1,.66,1.46,6.57,6.57,0,0,1,.36,1.27,1.52,1.52,0,0,1-.42,1.57l-.17.1c-1.08.51-1-.24-1.4.17s.2.34-.08,1.15c0,0,0,0,0,.05l-.07.18a0,0,0,0,0,0,0,.92.92,0,0,1-.24.31,1.08,1.08,0,0,1-.34.21,1.86,1.86,0,0,1-.5.09,3.84,3.84,0,0,1-1.25-.19,15.72,15.72,0,0,1-3.81-1.9l-1-.67.09.26a24.35,24.35,0,0,1,.91,3.27.64.64,0,0,0,0,.07,10.49,10.49,0,0,1,.19,1.7,2.44,2.44,0,0,1,0,.27,2.7,2.7,0,0,1-.36,1.44,1,1,0,0,1-.23.26,1.09,1.09,0,0,1-.44.19,1.53,1.53,0,0,1-.64,0c-.45-.09-.38-.43-.76-.21s.24.4-.54,1.31a1,1,0,0,1-.53.33h0a1.17,1.17,0,0,1-.42,0,2.63,2.63,0,0,1-.75-.2,7.21,7.21,0,0,1-1.61-1c-.14-.11-.29-.23-.43-.36a24,24,0,0,1-1.9-1.89c-.23-.25-.46-.52-.69-.8,0,.53.07,1,.08,1.53,0,.15,0,.31,0,.46v.24c0,.4,0,.77,0,1.13a12.36,12.36,0,0,1-.24,1.94.36.36,0,0,0,0,.1,4.47,4.47,0,0,1-.37,1,1.24,1.24,0,0,1-1.19.82h0c-1.16-.11-.72-.69-1.27-.55l-.15.06,0,0c-.19.17.16.47-.67,1a1,1,0,0,1-.53.18,1.5,1.5,0,0,1-.73-.19l-.31-.19-.11-.09a7.91,7.91,0,0,1-1.48-1.67A19.82,19.82,0,0,1,89.27,650c-.07-.13-.15-.26-.22-.4-.22-.42-.44-.87-.66-1.33-.07.37-.15.72-.22,1.07-.12.55-.25,1.07-.39,1.55-.09.3-.18.59-.27.86a10.23,10.23,0,0,1-.9,2,5.2,5.2,0,0,1-.45.6l0,.05a1.64,1.64,0,0,1-.25.22l-.22.13a1,1,0,0,1-.82.05c-.88-.31-.72-.66-.87-.81a.38.38,0,0,0-.25-.06c-.49,0-.13.34-.73.69a2.08,2.08,0,0,1-.39.18c-.6.21-1.17-.14-1.69-.92q-.17-.26-.33-.57l-.09-.19c0-.09-.09-.18-.13-.29a21.44,21.44,0,0,1-1.29-4.61c-.13.27-.25.53-.38.79l-.15.28,0,.08a22.22,22.22,0,0,1-1.28,2.15,5.81,5.81,0,0,1-2.23,2.2,1.4,1.4,0,0,1-.48.09h0a.86.86,0,0,1-.36-.08l-.18-.1c-.68-.47-.56-.76-.6-.94s-.08-.14-.25-.19c-.43-.12-.27.21-.7.41a1.71,1.71,0,0,1-.61.14h-.22c-.68-.09-1.14-.86-1.38-2.13-.05-.26-.09-.53-.12-.83a12.66,12.66,0,0,1-.09-1.57c0-.8,0-1.69.1-2.64v-.09c-.4.47-.79.91-1.17,1.31s-.48.49-.72.71a14.26,14.26,0,0,1-1.56,1.33,5.67,5.67,0,0,1-1.36.77A1.53,1.53,0,0,1,64,650a.89.89,0,0,1-.29-.23l0,0-.15-.2a1.25,1.25,0,0,1-.15-.27c-.18-.47.18-.59-.21-.82s-.22.41-1.41.2l-.24-.08a1,1,0,0,1-.47-.44,3,3,0,0,1-.3-1.56,11,11,0,0,1,.12-1.3q.09-.5.21-1a25.5,25.5,0,0,1,.8-2.71c0-.11.07-.22.11-.32l-.3.2c-.6.4-1.18.76-1.72,1.08a19.67,19.67,0,0,1-1.84.92,7.72,7.72,0,0,1-1.22.42c-1,.25-1.78.11-2.07-.51a2.49,2.49,0,0,1-.11-.26,1.3,1.3,0,0,1-.07-.47v0c0-.29.26-.36,0-.61l0,0a.5.5,0,0,0-.13-.1c-.24-.12-.32.26-1,0l-.29-.11a1.09,1.09,0,0,1-.6-.86,2.87,2.87,0,0,1,0-.82,9.31,9.31,0,0,1,1-2.63q.3-.58.69-1.23t1-1.53l.06-.08c-.53.19-1,.35-1.53.5s-1,.29-1.5.39a10.33,10.33,0,0,1-2.65.32h-.23a3.89,3.89,0,0,1-.51-.08c-.59-.15-1-.45-1-.93-.14-.77.11-.92.22-1.07s.08-.16,0-.33a.44.44,0,0,0-.08-.1c-.19-.22-.34.08-.83-.17h0a2.54,2.54,0,0,1-.39-.27c-.49-.42-.46-1.11,0-2a3.79,3.79,0,0,1,.18-.34c.16-.25.34-.52.56-.8a16.93,16.93,0,0,1,1.4-1.57c.41-.41.87-.85,1.38-1.29l.3-.26.12-.1a26.11,26.11,0,0,1-3.25.07l-.76,0a5.76,5.76,0,0,1-2.73-.76,1.42,1.42,0,0,1-.3-.3,1,1,0,0,1-.21-.71c0-.6.22-.78.37-.89s.26-.13.18-.41-.27-.19-.58-.33a1,1,0,0,1-.33-.26l-.11-.12-.11-.15-.09-.17a.42.42,0,0,0,0-.1c-.23-.72.41-1.62,1.68-2.59a16.82,16.82,0,0,1,1.94-1.25l.48-.27c.46-.24.95-.49,1.47-.74-.58-.11-1.14-.22-1.67-.35l-.77-.2a17,17,0,0,1-2-.7l-.25-.11a5.93,5.93,0,0,1-1.08-.61,1.71,1.71,0,0,1-.81-1.18.86.86,0,0,1,0-.35.13.13,0,0,0,0-.06c.41-1.13.88-.53.88-1.12s-.47,0-.87-1.12a.75.75,0,0,1,0-.16,1,1,0,0,1,0-.41,1.27,1.27,0,0,1,.13-.32l.07-.11a3.93,3.93,0,0,1,1.55-1.13,13,13,0,0,1,2.11-.77c.54-.16,1.14-.3,1.78-.44l1-.19L48.2,608l-.17-.08A23.18,23.18,0,0,1,44.71,606a8.15,8.15,0,0,1-1.2-1l0,0c-.68-.75-.9-1.42-.52-2l.19-.24a.91.91,0,0,1,.6-.35c.17,0,.27,0,.34-.25h0c.15-.55-.44-.12-.55-1.26v-.05a1,1,0,0,1,.32-.83,1.69,1.69,0,0,1,.36-.27,2.88,2.88,0,0,1,.61-.28l.09,0a14.82,14.82,0,0,1,5-.36h.18l.68.05-.61-.53-.71-.66a17.64,17.64,0,0,1-1.83-2l-.28-.38a6.39,6.39,0,0,1-.57-1,3.52,3.52,0,0,1-.2-.53s0,0,0-.07h0a1.13,1.13,0,0,1,.32-1.21c.8-.68,1-.2,1.21-.39a1,1,0,0,0,.1-.14c.16-.27,0-.32-.09-.49s-.2-.37-.1-.92.58-.87,1.35-1a3.52,3.52,0,0,1,.58,0,8.71,8.71,0,0,1,1,.06l.51.07a24.32,24.32,0,0,1,4,1.11l-.38-.57-.11-.16-.06-.1c-.42-.65-.79-1.28-1.1-1.86A7.6,7.6,0,0,1,52.76,585a1.67,1.67,0,0,1,.1-.53.89.89,0,0,1,.08-.17l0-.06a1.1,1.1,0,0,1,.41-.36c1.09-.51,1,.24,1.41-.17s0-.33,0-.64a1.3,1.3,0,0,1,0-.27,2.27,2.27,0,0,1,.14-.42l0-.07a1.06,1.06,0,0,1,.29-.37,2.54,2.54,0,0,1,2.28,0c.22.07.45.16.69.26s.78.36,1.2.58a27.94,27.94,0,0,1,2.69,1.66c-.14-.4-.27-.79-.39-1.16s-.21-.71-.3-1a15.12,15.12,0,0,1-.44-2.09,7.42,7.42,0,0,1-.08-1.51,2.28,2.28,0,0,1,.37-1.24.82.82,0,0,1,.29-.27.89.89,0,0,1,.35-.14h0l.27,0c.82-.05.65.49,1.1.23s-.22-.4.51-1.28l0,0a1,1,0,0,1,.63-.34c.7-.11,1.7.39,2.88,1.37l.73.65h0c.37.35.75.74,1.15,1.16s.63.7.95,1.09c0-.74-.09-1.43-.09-2.08v-.06c0-.55,0-1.06,0-1.54a9.67,9.67,0,0,1,.3-1.94c.29-1.1.79-1.7,1.5-1.64a1.65,1.65,0,0,1,.44.08.89.89,0,0,1,.34.17.41.41,0,0,1,.09.1c.12.15.14.28.43.2l.11,0c.35-.16-.17-.47.75-1.1l.15-.08a1,1,0,0,1,.42-.09,1.15,1.15,0,0,1,.53.11,2.74,2.74,0,0,1,.64.41,10,10,0,0,1,2,2.53c.23.38.46.78.68,1.21s.46.87.68,1.35l.06-.3a24.83,24.83,0,0,1,.67-2.73,13.17,13.17,0,0,1,.64-1.71,4.84,4.84,0,0,1,.94-1.44.75.75,0,0,1,.16-.15,1.1,1.1,0,0,1,.92-.27l.17,0c1.13.4.55.86,1.11.87h0a.41.41,0,0,0,.22,0c.13-.07.09-.25.26-.45a1.36,1.36,0,0,1,.3-.23,1.59,1.59,0,0,1,.34-.14,1.16,1.16,0,0,1,1.22.34,6.24,6.24,0,0,1,1.32,2.36,17.6,17.6,0,0,1,.55,1.83,2.68,2.68,0,0,1,.07.27c.13.56.26,1.15.37,1.77l.18-.36c.22-.45.45-.88.67-1.29s.46-.81.69-1.17.39-.59.58-.85a7.92,7.92,0,0,1,1.21-1.35,1.9,1.9,0,0,1,1.31-.56.91.91,0,0,1,.5.17c1,.69.3,1,.86,1.14s.19-.34,1-.51l.14,0,.17,0a1.2,1.2,0,0,1,.27,0l.18,0,.17.08a2.07,2.07,0,0,1,.76,1.13,2,2,0,0,1,.08.26,15.23,15.23,0,0,1,.32,4.79c0,.11,0,.23,0,.34s0,.4-.05.6a28.47,28.47,0,0,1,2.3-2.4l.08-.07a11.51,11.51,0,0,1,1.54-1.19,3.78,3.78,0,0,1,1.45-.59,1.67,1.67,0,0,1,.39,0,1,1,0,0,1,.61.35,2.06,2.06,0,0,1,.21.29h0c.39.64-.14.76.31,1s.22-.41,1.4-.19a.93.93,0,0,1,.34.13,1.22,1.22,0,0,1,.25.2,1.71,1.71,0,0,1,.21.35,2.09,2.09,0,0,1,.13.4,6.06,6.06,0,0,1,0,2.05,19.89,19.89,0,0,1-.66,2.85l-.34,1c0,.14-.1.29-.16.44l.61-.41.51-.33a21.88,21.88,0,0,1,2.29-1.26l.34-.16.32-.13a8.31,8.31,0,0,1,.92-.31,3.9,3.9,0,0,1,.76-.13,1.52,1.52,0,0,1,1.19.31,1,1,0,0,1,.22.3c.51,1.09-.24,1,.17,1.41a.53.53,0,0,0,.14.1c.27.14.32-.37,1.27.08a1,1,0,0,1,.54.63,1.83,1.83,0,0,1,.06.25,2.11,2.11,0,0,1,0,.44c0,.16,0,.33-.06.52a5.45,5.45,0,0,1-.19.68,8.84,8.84,0,0,1-.36.94q-.27.59-.63,1.26c-.27.48-.57,1-.92,1.52-.19.29-.39.6-.6.9l.53-.18q1.15-.39,2.16-.63a11.65,11.65,0,0,1,3-.4,3.76,3.76,0,0,1,.51.06,2.33,2.33,0,0,1,.58.17,1.28,1.28,0,0,1,.26.16.69.69,0,0,1,.13.11,1,1,0,0,1,.27.52,3.08,3.08,0,0,1,0,.38,1.32,1.32,0,0,1,0,.32c-.11.38-.41.35-.2.71s.38-.1,1.07.35l.24.18c.5.43.47,1.12,0,2,0,.11-.12.23-.19.35s-.24.36-.38.56a18,18,0,0,1-2.14,2.35l-.56.51-.67.58,1.14-.07a20.72,20.72,0,0,1,3,.06h0a5.47,5.47,0,0,1,2.53.74,1.37,1.37,0,0,1,.39.41,1,1,0,0,1,.14.37,1.77,1.77,0,0,1,0,.23s0,0,0,.06c-.11,1.09-.66.72-.55,1.21v0c.15.56.45-.13,1.13.86a1,1,0,0,1,.17.45,1.13,1.13,0,0,1,0,.26,3,3,0,0,1-1.18,1.71c-.18.16-.38.32-.59.48h0c-.22.17-.47.34-.73.51a25.85,25.85,0,0,1-3.08,1.69l1.11.23.8.19a14.46,14.46,0,0,1,3.18,1.12,3.07,3.07,0,0,1,1.41,1.22.93.93,0,0,1,.11.41.89.89,0,0,1-.06.39s0,.08,0,.12a1.76,1.76,0,0,1-.2.37l0,0c-.3.38-.57.18-.61.51V613C125,613.45,125.29,613.09,125.63,613.67Z"/><path class="cls-5" d="M125.56,612.35l0,0a1.76,1.76,0,0,0,.2-.37s0-.07,0-.12a.89.89,0,0,0,.06-.39.93.93,0,0,0-.11-.41,3.07,3.07,0,0,0-1.41-1.22,14.46,14.46,0,0,0-3.18-1.12l-.8-.19-1.11-.23a25.85,25.85,0,0,0,3.08-1.69c.26-.17.51-.34.73-.51h0c.21-.16.41-.32.59-.48a3,3,0,0,0,1.18-1.71,1.13,1.13,0,0,0,0-.26,1,1,0,0,0-.17-.45c-.68-1-1-.3-1.13-.86v0c-.11-.49.44-.12.55-1.21,0,0,0,0,0-.06a1.77,1.77,0,0,0,0-.23,1,1,0,0,0-.14-.37,1.37,1.37,0,0,0-.39-.41,5.47,5.47,0,0,0-2.53-.74h0a20.72,20.72,0,0,0-3-.06l-1.14.07.67-.58.56-.51a18,18,0,0,0,2.14-2.35c.14-.2.27-.38.38-.56s.14-.24.19-.35c.46-.88.49-1.57,0-2l-.24-.18c-.69-.45-.81.1-1.07-.35s.09-.33.2-.71a1.32,1.32,0,0,0,0-.32,3.08,3.08,0,0,0,0-.38,1,1,0,0,0-.27-.52.69.69,0,0,0-.13-.11,1.28,1.28,0,0,0-.26-.16,2.33,2.33,0,0,0-.58-.17,3.76,3.76,0,0,0-.51-.06,11.65,11.65,0,0,0-3,.4q-1,.24-2.16.63l-.53.18c.21-.3.41-.61.6-.9.35-.53.65-1,.92-1.52s.45-.87.63-1.26a8.84,8.84,0,0,0,.36-.94,5.45,5.45,0,0,0,.19-.68c0-.19,0-.36.06-.52a2.11,2.11,0,0,0,0-.44,1.83,1.83,0,0,0-.06-.25,1,1,0,0,0-.54-.63c-.95-.45-1,.06-1.27-.08a.53.53,0,0,1-.14-.1c-.41-.41.34-.32-.17-1.41a1,1,0,0,0-.22-.3,1.52,1.52,0,0,0-1.19-.31,3.9,3.9,0,0,0-.76.13,8.31,8.31,0,0,0-.92.31l-.32.13-.34.16a21.88,21.88,0,0,0-2.29,1.26l-.51.33-.61.41c.06-.15.11-.3.16-.44l.34-1a19.89,19.89,0,0,0,.66-2.85,6.06,6.06,0,0,0,0-2.05,2.09,2.09,0,0,0-.13-.4,1.71,1.71,0,0,0-.21-.35,1.22,1.22,0,0,0-.25-.2.93.93,0,0,0-.34-.13c-1.18-.22-.9.48-1.4.19s.08-.37-.31-1h0a2.06,2.06,0,0,0-.21-.29,1,1,0,0,0-.61-.35,1.67,1.67,0,0,0-.39,0,3.78,3.78,0,0,0-1.45.59,11.51,11.51,0,0,0-1.54,1.19l-.08.07a28.47,28.47,0,0,0-2.3,2.4c0-.2,0-.4.05-.6s0-.23,0-.34a15.23,15.23,0,0,0-.32-4.79,2,2,0,0,0-.08-.26,2.07,2.07,0,0,0-.76-1.13l-.17-.08-.18,0a1.2,1.2,0,0,0-.27,0l-.17,0-.14,0c-.8.17-.49.64-1,.51s.13-.45-.86-1.14a.91.91,0,0,0-.5-.17,1.9,1.9,0,0,0-1.31.56,7.92,7.92,0,0,0-1.21,1.35c-.19.26-.38.54-.58.85s-.46.76-.69,1.17-.45.84-.67,1.29l-.18.36c-.11-.62-.24-1.21-.37-1.77a2.68,2.68,0,0,0-.07-.27,17.6,17.6,0,0,0-.55-1.83,6.24,6.24,0,0,0-1.32-2.36,1.16,1.16,0,0,0-1.22-.34,1.59,1.59,0,0,0-.34.14,1.36,1.36,0,0,0-.3.23c-.17.2-.13.38-.26.45a.41.41,0,0,1-.22,0h0c-.56,0,0-.47-1.11-.87l-.17,0a1.1,1.1,0,0,0-.92.27.75.75,0,0,0-.16.15,4.84,4.84,0,0,0-.94,1.44,13.17,13.17,0,0,0-.64,1.71,24.83,24.83,0,0,0-.67,2.73l-.06.3c-.22-.48-.45-.93-.68-1.35s-.45-.83-.68-1.21a10,10,0,0,0-2-2.53,2.74,2.74,0,0,0-.64-.41,1.15,1.15,0,0,0-.53-.11,1,1,0,0,0-.42.09l-.15.08c-.92.63-.4.94-.75,1.1l-.11,0c-.29.08-.31-.05-.43-.2a.41.41,0,0,0-.09-.1.89.89,0,0,0-.34-.17,1.65,1.65,0,0,0-.44-.08c-.71-.06-1.21.54-1.5,1.64a9.67,9.67,0,0,0-.3,1.94c0,.48,0,1,0,1.54v.06c0,.65,0,1.34.09,2.08-.32-.39-.64-.75-.95-1.09s-.78-.81-1.15-1.16h0l-.73-.65c-1.18-1-2.18-1.48-2.88-1.37a1,1,0,0,0-.63.34l0,0c-.73.88,0,1-.51,1.28s-.28-.28-1.1-.23L62,577h0a.89.89,0,0,0-.35.14.82.82,0,0,0-.29.27,2.28,2.28,0,0,0-.37,1.24,7.42,7.42,0,0,0,.08,1.51,15.12,15.12,0,0,0,.44,2.09q.14.51.3,1c.12.37.25.76.39,1.16a27.94,27.94,0,0,0-2.69-1.66c-.42-.22-.82-.42-1.2-.58s-.47-.19-.69-.26a2.54,2.54,0,0,0-2.28,0,1.06,1.06,0,0,0-.29.37l0,.07a2.27,2.27,0,0,0-.14.42,1.3,1.3,0,0,0,0,.27c0,.31.27.37,0,.64s-.32-.34-1.41.17a1.1,1.1,0,0,0-.41.36l0,.06a.89.89,0,0,0-.08.17,1.67,1.67,0,0,0-.1.53,7.6,7.6,0,0,0,1.09,3.35c.31.58.68,1.21,1.1,1.86l.06.1.11.16.38.57a24.32,24.32,0,0,0-4-1.11l-.51-.07a8.71,8.71,0,0,0-1-.06,3.52,3.52,0,0,0-.58,0c-.77.1-1.25.41-1.35,1s0,.78.1.92.25.22.09.49a1,1,0,0,1-.1.14c-.23.19-.41-.29-1.21.39a1.13,1.13,0,0,0-.32,1.21h0s0,0,0,.07a3.52,3.52,0,0,0,.2.53,6.39,6.39,0,0,0,.57,1l.28.38a17.64,17.64,0,0,0,1.83,2l.71.66.61.53-.68-.05H50a14.82,14.82,0,0,0-5,.36l-.09,0a2.88,2.88,0,0,0-.61.28,1.69,1.69,0,0,0-.36.27,1,1,0,0,0-.32.83v.05c.11,1.14.7.71.55,1.26h0c-.07.26-.17.24-.34.25a.91.91,0,0,0-.6.35L43,603c-.38.55-.16,1.22.52,2l0,0a8.15,8.15,0,0,0,1.2,1A23.18,23.18,0,0,0,48,607.93l.17.08.17.08-1,.19c-.64.14-1.24.28-1.78.44a13,13,0,0,0-2.11.77A3.93,3.93,0,0,0,42,610.62l-.07.11a1.27,1.27,0,0,0-.13.32,1,1,0,0,0,0,.41.75.75,0,0,0,0,.16c.4,1.14.87.54.87,1.12s-.47,0-.88,1.12a.13.13,0,0,1,0,.06.86.86,0,0,0,0,.35,1.71,1.71,0,0,0,.81,1.18,5.93,5.93,0,0,0,1.08.61l.25.11a17,17,0,0,0,2,.7l.77.2c.53.13,1.09.24,1.67.35-.52.25-1,.5-1.47.74l-.48.27a16.82,16.82,0,0,0-1.94,1.25c-1.27,1-1.91,1.87-1.68,2.59a.42.42,0,0,1,0,.1l.09.17.11.15.11.12a1,1,0,0,0,.33.26c.31.14.48-.05.58.33s0,.31-.18.41-.32.29-.37.89a1,1,0,0,0,.21.71,1.42,1.42,0,0,0,.3.3,5.76,5.76,0,0,0,2.73.76l.76,0a26.11,26.11,0,0,0,3.25-.07l-.12.1-.3.26c-.51.44-1,.88-1.38,1.29a16.93,16.93,0,0,0-1.4,1.57c-.22.28-.4.55-.56.8a3.79,3.79,0,0,0-.18.34c-.45.87-.48,1.56,0,2a2.54,2.54,0,0,0,.39.27h0c.49.25.64,0,.83.17a.44.44,0,0,1,.08.1c.1.17.08.25,0,.33s-.36.3-.22,1.07c.08.48.45.78,1,.93a3.89,3.89,0,0,0,.51.08h.23a10.33,10.33,0,0,0,2.65-.32q.7-.15,1.5-.39c.49-.15,1-.31,1.53-.5l-.06.08q-.54.79-1,1.53t-.69,1.23a9.31,9.31,0,0,0-1,2.63,2.87,2.87,0,0,0,0,.82,1.09,1.09,0,0,0,.6.86l.29.11c.66.22.74-.16,1,0a.5.5,0,0,1,.13.1l0,0c.24.25,0,.32,0,.61v0a1.3,1.3,0,0,0,.07.47,2.49,2.49,0,0,0,.11.26c.29.62,1,.76,2.07.51a7.72,7.72,0,0,0,1.22-.42,19.67,19.67,0,0,0,1.84-.92c.54-.32,1.12-.68,1.72-1.08l.3-.2c0,.1-.07.21-.11.32a25.5,25.5,0,0,0-.8,2.71q-.12.55-.21,1a11,11,0,0,0-.12,1.3,3,3,0,0,0,.3,1.56,1,1,0,0,0,.47.44l.24.08c1.19.21.9-.49,1.41-.2s0,.35.21.82a1.25,1.25,0,0,0,.15.27l.15.2,0,0A.89.89,0,0,0,64,650a1.53,1.53,0,0,0,1.26,0,5.67,5.67,0,0,0,1.36-.77,14.26,14.26,0,0,0,1.56-1.33c.24-.22.47-.46.72-.71s.77-.84,1.17-1.31v.09c-.08,1-.11,1.84-.1,2.64a12.66,12.66,0,0,0,.09,1.57c0,.3.07.57.12.83.24,1.27.7,2,1.38,2.13h.22a1.71,1.71,0,0,0,.61-.14c.43-.2.27-.53.7-.41.17.05.23.11.25.19s-.08.47.6.94l.18.1a.86.86,0,0,0,.36.08h0a1.4,1.4,0,0,0,.48-.09,5.81,5.81,0,0,0,2.23-2.2,22.22,22.22,0,0,0,1.28-2.15l0-.08.15-.28c.13-.26.25-.52.38-.79a21.44,21.44,0,0,0,1.29,4.61c0,.11.09.2.13.29l.09.19q.16.32.33.57c.52.78,1.09,1.13,1.69.92a2.08,2.08,0,0,0,.39-.18c.6-.35.24-.69.73-.69a.38.38,0,0,1,.25.06c.15.15,0,.5.87.81a1,1,0,0,0,.82-.05l.22-.13a1.64,1.64,0,0,0,.25-.22l0-.05a5.2,5.2,0,0,0,.45-.6,10.23,10.23,0,0,0,.9-2c.09-.27.18-.56.27-.86.14-.48.27-1,.39-1.55.07-.35.15-.7.22-1.07.22.46.44.91.66,1.33.07.14.15.27.22.4a19.82,19.82,0,0,0,1.07,1.74,7.91,7.91,0,0,0,1.48,1.67l.11.09.31.19a1.5,1.5,0,0,0,.73.19,1,1,0,0,0,.53-.18c.83-.57.48-.87.67-1l0,0,.15-.06c.55-.14.11.44,1.27.55h0a1.24,1.24,0,0,0,1.19-.82,4.47,4.47,0,0,0,.37-1,.36.36,0,0,1,0-.1,12.36,12.36,0,0,0,.24-1.94c0-.36,0-.73,0-1.13v-.24c0-.15,0-.31,0-.46,0-.49,0-1-.08-1.53.23.28.46.55.69.8a24,24,0,0,0,1.9,1.89c.14.13.29.25.43.36a7.21,7.21,0,0,0,1.61,1,2.63,2.63,0,0,0,.75.2,1.17,1.17,0,0,0,.42,0h0a1,1,0,0,0,.53-.33c.78-.91,0-1,.54-1.31s.31.12.76.21a1.53,1.53,0,0,0,.64,0,1.09,1.09,0,0,0,.44-.19,1,1,0,0,0,.23-.26,2.7,2.7,0,0,0,.36-1.44,2.44,2.44,0,0,0,0-.27,10.49,10.49,0,0,0-.19-1.7.64.64,0,0,1,0-.07,24.35,24.35,0,0,0-.91-3.27l-.09-.26,1,.67a15.72,15.72,0,0,0,3.81,1.9,3.84,3.84,0,0,0,1.25.19,1.86,1.86,0,0,0,.5-.09,1.08,1.08,0,0,0,.34-.21.92.92,0,0,0,.24-.31,0,0,0,0,1,0,0l.07-.18s0,0,0-.05c.28-.81-.3-.78.08-1.15s.32.34,1.4-.17l.17-.1a1.52,1.52,0,0,0,.42-1.57,6.57,6.57,0,0,0-.36-1.27,13.72,13.72,0,0,0-.66-1.46c-.19-.37-.41-.76-.65-1.16-.08-.13-.16-.27-.25-.4q-.36-.58-.78-1.2c.57.21,1.12.39,1.64.55l.71.19c.27.08.53.14.79.2a7.32,7.32,0,0,0,3.44.17,1.18,1.18,0,0,0,.86-.81.25.25,0,0,1,0-.07c0-.13,0-.24,0-.34a1,1,0,0,0-.29-.78.22.22,0,0,1,0-.16.61.61,0,0,1,0-.12c.28-.49.4.17,1.23-.46l.09-.07a1.06,1.06,0,0,0,.37-.8,2,2,0,0,0-.07-.52,5.68,5.68,0,0,0-.91-1.69c-.16-.21-.33-.42-.52-.65a26.49,26.49,0,0,0-2.76-2.71l.19,0,.46,0c.64,0,1.25.06,1.82.06a14.91,14.91,0,0,0,2.48-.18,7.85,7.85,0,0,0,.86-.2c.76-.24,1.25-.58,1.4-1a.06.06,0,0,0,0,0,1.08,1.08,0,0,0,0-.36,1.71,1.71,0,0,0-.16-.64c-.2-.39-.5-.25-.39-.67h0c.08-.29.2-.24.4-.27a.72.72,0,0,0,.44-.23,1.58,1.58,0,0,0,.29-.35c.32-.45.22-1-.21-1.59a7.74,7.74,0,0,0-1.77-1.61l-.82-.53,0,0a27,27,0,0,0-2.56-1.38c.74-.13,1.43-.28,2.07-.44l.17,0,.16,0c.32-.08.62-.17.91-.26a7.58,7.58,0,0,0,2.84-1.43,1.2,1.2,0,0,0,.43-1.31,1.66,1.66,0,0,0-.19-.4c-.34-.58-.68-.22-.68-.72v-.09C125,612.53,125.26,612.73,125.56,612.35Zm-12.5,1a.72.72,0,0,1-.07.62,2.26,2.26,0,0,1-1,.83,9.85,9.85,0,0,1-1.37.53l-.68.18c-.45.12-.94.22-1.46.32l.4.19a11.11,11.11,0,0,1,3,2,2.63,2.63,0,0,1,.28.34c.29.41.36.78.14,1.09l-.15.18c-.31.33-.48.17-.58.29a.36.36,0,0,0-.06.11h0c-.11.39.32.08.38.92,0,.43-.29.75-.89,1a3,3,0,0,1-.45.12,10.83,10.83,0,0,1-2.59.18l-.71,0-.45,0c.36.31.7.62,1,.91a7.75,7.75,0,0,1,1.85,2.41,2.13,2.13,0,0,1,.09.27.8.8,0,0,1-.21.87c-.51.43-.66.2-.81.25s-.07,0-.11.12c-.15.26.07.23.14.51v0a1.14,1.14,0,0,1,0,.44c-.09.5-.63.72-1.46.71a7,7,0,0,1-1-.09,17.58,17.58,0,0,1-2.65-.72l-.16-.06c.22.33.43.66.62,1s.34.57.49.84a6.81,6.81,0,0,1,.78,2.06,1.34,1.34,0,0,1-.12.88.67.67,0,0,1-.29.26c-.76.36-.69-.17-1,.12-.09.09-.1.15-.09.2a.72.72,0,0,1,0,.74l0,0s-.06.07-.08.11c-.25.33-.73.39-1.38.22a10.78,10.78,0,0,1-3.15-1.58,4.68,4.68,0,0,1-.4-.27c.09.25.17.5.25.74a16,16,0,0,1,.47,1.87s0,0,0,.08a5.38,5.38,0,0,1,.1,1.44c0,.63-.27,1-.7,1.1l-.15,0c-.64.06-.51-.34-.83-.16s.05.26-.23.73l-.15.19a.61.61,0,0,1-.24.19.7.7,0,0,1-.35.06,1.78,1.78,0,0,1-.79-.23,11.61,11.61,0,0,1-3.06-2.77c0,.25,0,.5,0,.74s0,.61,0,.89a12.11,12.11,0,0,1-.13,1.73c0,.17-.06.33-.09.47a1.82,1.82,0,0,1-.07.25c-.21.67-.54,1-1,1-.79-.06-.56-.43-.86-.39H91c-.39.11.1.32-.6.79,0,0-.07,0-.1,0a.72.72,0,0,1-.54,0,1.7,1.7,0,0,1-.56-.32l0,0a11.16,11.16,0,0,1-2.32-3.54c-.11.56-.22,1.09-.35,1.56-.08.29-.16.56-.24.82A7.78,7.78,0,0,1,85.7,641a.43.43,0,0,1,0,.07,2.49,2.49,0,0,1-.43.57.82.82,0,0,1-.87.25c-.79-.29-.37-.61-.78-.61s-.15.19-.4.4a1.16,1.16,0,0,1-.38.21.77.77,0,0,1-.45,0,1.18,1.18,0,0,1-.53-.39l-.11-.12a4.78,4.78,0,0,1-.43-.76,14.23,14.23,0,0,1-1-3.35,17.69,17.69,0,0,1-1.18,2.13,7.09,7.09,0,0,1-.45.64,4.75,4.75,0,0,1-.41.46,3,3,0,0,1-.38.35,1.29,1.29,0,0,1-.84.33.77.77,0,0,1-.33-.12c-.7-.48-.21-.69-.6-.8s-.08.33-.92.39h-.1a.79.79,0,0,1-.59-.37,1.93,1.93,0,0,1-.19-.32,4.29,4.29,0,0,1-.16-.47,7.23,7.23,0,0,1-.2-1.39,16.94,16.94,0,0,1,0-2.53,14.79,14.79,0,0,1-2.34,2.28,3.62,3.62,0,0,1-.37.26l-.19.12a2.62,2.62,0,0,1-.79.3.78.78,0,0,1-.77-.23l-.1-.14c-.35-.51.05-.59-.27-.78s-.16.29-1,.14a.74.74,0,0,1-.51-.37,1.57,1.57,0,0,1-.15-.49l0-.14a5.3,5.3,0,0,1,0-1.17,11.62,11.62,0,0,1,.35-1.64c.13-.44.28-.92.46-1.42a14.3,14.3,0,0,1-3.18,1.73l-.4.11a3,3,0,0,1-.55.08,1.1,1.1,0,0,1-.57-.12.67.67,0,0,1-.31-.31c-.31-.65,0-.7,0-.88a.38.38,0,0,0-.07-.11c-.29-.29-.23.24-1-.12a.91.91,0,0,1-.42-1c0-.09,0-.18,0-.28s.08-.31.13-.48a8.3,8.3,0,0,1,.63-1.42c.24-.46.55-1,.89-1.48l.25-.37a14.38,14.38,0,0,1-3.45.84,3.26,3.26,0,0,1-1.13-.08,1.24,1.24,0,0,1-.38-.2.66.66,0,0,1-.25-.4v0c-.15-.83.34-.63.14-1s-.24,0-.55-.14a1.06,1.06,0,0,1-.37-.23.9.9,0,0,1-.15-1.06,4.64,4.64,0,0,1,.81-1.33h0a13.44,13.44,0,0,1,1.41-1.46c.21-.2.44-.4.67-.6-.4,0-.78.05-1.15.06A11.94,11.94,0,0,1,57,622c-.78-.15-1.3-.4-1.49-.77a.83.83,0,0,1-.08-.36h0a.9.9,0,0,1,.15-.51c.14-.2.31-.14.24-.41s-.32.1-.79-.6a.31.31,0,0,1-.05-.12,1,1,0,0,1,.2-1,6.65,6.65,0,0,1,2-1.58c.39-.23.8-.45,1.26-.68l.44-.22-.46-.09a16.18,16.18,0,0,1-2.16-.58c-.27-.1-.52-.2-.75-.31-.94-.45-1.42-1-1.22-1.51a1,1,0,0,1,.06-.14.82.82,0,0,1,.26-.35c.17-.11.29,0,.29-.29s0-.16-.06-.19-.34,0-.55-.6a.77.77,0,0,1,.08-.64,1.56,1.56,0,0,1,.4-.42,9,9,0,0,1,3.42-1.27l.71-.14-.66-.33-.82-.45a9.62,9.62,0,0,1-1.55-1.07l-.21-.2c-.61-.59-.84-1.13-.55-1.55.46-.65.67-.26.78-.55l0,0c.06-.23-.06-.22-.19-.34a.82.82,0,0,1-.19-.5s0,0,0-.08c0-.41.27-.72.81-.93h0a10.85,10.85,0,0,1,4.26-.25c-.26-.23-.51-.45-.74-.67l-.43-.41c-.33-.33-.61-.64-.86-.93l-.47-.62a3.37,3.37,0,0,1-.45-1,.81.81,0,0,1,.22-.87c.64-.55.71,0,.92-.37s-.09-.22-.15-.55a1.32,1.32,0,0,1,0-.44.51.51,0,0,1,.07-.15.6.6,0,0,1,.22-.28,1.46,1.46,0,0,1,.86-.27,4.21,4.21,0,0,1,.7,0,14.3,14.3,0,0,1,3.38.85,18.16,18.16,0,0,1-1.26-2.1c-.06-.12-.12-.24-.17-.36a6.39,6.39,0,0,1-.33-.82c0-.07,0-.14,0-.2a1.59,1.59,0,0,1,0-1.3.78.78,0,0,1,.27-.24c.77-.35.7.17,1-.12s-.24-.22.12-1l.07-.08a.76.76,0,0,1,.64-.34,2.37,2.37,0,0,1,.58,0l.13,0a7.58,7.58,0,0,1,1.43.55,18.91,18.91,0,0,1,2.16,1.31,15.21,15.21,0,0,1-.81-3.17c0-.2,0-.39,0-.57a3.17,3.17,0,0,1,0-.44,1.89,1.89,0,0,1,.12-.52.76.76,0,0,1,.57-.53l.17,0c.62,0,.49.35.82.16s-.18-.27.37-.92a.72.72,0,0,1,.57-.25,2.15,2.15,0,0,1,1,.35l.11.06a7.21,7.21,0,0,1,.95.72c.26.23.53.48.81.77s.66.71,1,1.11a12.11,12.11,0,0,1,.18-4s0,0,0-.07a1.6,1.6,0,0,1,.61-1,.59.59,0,0,1,.32-.09l.09,0c.71.06.6.37.78.4a.23.23,0,0,0,.14,0c.39-.1-.1-.31.6-.79.36-.25.8-.12,1.28.29l.3.3a7.25,7.25,0,0,1,.79,1,15.24,15.24,0,0,1,1,1.79l.08.15.12.25a11.9,11.9,0,0,1,1.26-3.89,3.09,3.09,0,0,1,.37-.46.8.8,0,0,1,.86-.24,1.62,1.62,0,0,1,.26.12c.38.21.23.42.42.48h.1c.31,0,.15-.19.4-.4a1,1,0,0,1,.39-.21c.51-.18,1,.23,1.43,1.07.1.21.2.44.3.7a13.41,13.41,0,0,1,.56,2q.11.42.18.87c.17-.36.35-.7.52-1a1.62,1.62,0,0,0,.1-.18,8.74,8.74,0,0,1,1.7-2.3,1.35,1.35,0,0,1,.91-.4.67.67,0,0,1,.36.12c.7.48.21.69.6.79a.24.24,0,0,0,.14,0c.15,0,.1-.25.5-.35a1.11,1.11,0,0,1,.28,0,.66.66,0,0,1,.14,0c.48.06.81.59,1,1.48a13.16,13.16,0,0,1,.11,3.13c0,.15,0,.31,0,.47.23-.27.46-.52.68-.75a14.59,14.59,0,0,1,1.21-1.18h0a5.64,5.64,0,0,1,1.35-.89c.52-.23,1-.22,1.21.09l.09.12c.38.53,0,.62.28.81s.16-.29,1-.14l.05,0a.65.65,0,0,1,.31.18.74.74,0,0,1,.15.19,2.59,2.59,0,0,1,.18,1.4,14.33,14.33,0,0,1-.86,3.43l.62-.41a16,16,0,0,1,1.74-1,6.45,6.45,0,0,1,1-.4h0a3.23,3.23,0,0,1,.55-.12c.52-.06.9.06,1.07.42.33.71-.1.7.08.94l0,0c.28.29.22-.23,1,.13a.74.74,0,0,1,.4.56,1.61,1.61,0,0,1,0,.58v0a4.57,4.57,0,0,1-.21.78,14.21,14.21,0,0,1-1.7,3.07c.53-.19,1-.35,1.52-.48a8.87,8.87,0,0,1,2.38-.37,3.15,3.15,0,0,1,.46,0l.21,0h0a.81.81,0,0,1,.65.62c.15.83-.35.63-.14,1s.23,0,.55.15a1.16,1.16,0,0,1,.37.23c.34.29.32.77,0,1.37a5.63,5.63,0,0,1-.33.54l0,0a3.77,3.77,0,0,1-.31.42,17.4,17.4,0,0,1-2.11,2.08,17.1,17.1,0,0,1,2.45,0,5.61,5.61,0,0,1,2,.4,2.45,2.45,0,0,1,.29.18.85.85,0,0,1,.28.33v0a.72.72,0,0,1,.05.33c-.06.84-.49.52-.38.91s.31-.09.79.6c0,0,0,.07,0,.1.22.46-.08,1-.8,1.64l-.29.23c-.16.13-.35.26-.55.4-.36.23-.77.47-1.22.72s-.64.33-1,.49a15,15,0,0,1,3.15.89,4,4,0,0,1,1.06.62,1,1,0,0,1,.42.75.67.67,0,0,1,0,.24c0,.06,0,.11-.07.16l0,.07c-.26.47-.51.19-.51.55S112.78,612.57,113.06,613.36Z"/><path class="cls-4" d="M113,612l0-.07c0-.05.05-.1.07-.16a.67.67,0,0,0,0-.24,1,1,0,0,0-.42-.75,4,4,0,0,0-1.06-.62,15,15,0,0,0-3.15-.89c.35-.16.68-.33,1-.49s.86-.49,1.22-.72c.2-.14.39-.27.55-.4l.29-.23c.72-.62,1-1.18.8-1.64,0,0,0-.07,0-.1-.48-.69-.69-.2-.79-.6s.32-.07.38-.91a.72.72,0,0,0-.05-.33v0a.85.85,0,0,0-.28-.33,2.45,2.45,0,0,0-.29-.18,5.61,5.61,0,0,0-2-.4,17.1,17.1,0,0,0-2.45,0,17.4,17.4,0,0,0,2.11-2.08,3.77,3.77,0,0,0,.31-.42l0,0a5.63,5.63,0,0,0,.33-.54c.3-.6.32-1.08,0-1.37a1.16,1.16,0,0,0-.37-.23c-.32-.12-.4.12-.55-.15s.29-.15.14-1a.81.81,0,0,0-.65-.62h0l-.21,0a3.15,3.15,0,0,0-.46,0,8.87,8.87,0,0,0-2.38.37c-.47.13-1,.29-1.52.48a14.21,14.21,0,0,0,1.7-3.07,4.57,4.57,0,0,0,.21-.78v0a1.61,1.61,0,0,0,0-.58.74.74,0,0,0-.4-.56c-.76-.36-.7.16-1-.13l0,0c-.18-.24.25-.23-.08-.94-.17-.36-.55-.48-1.07-.42a3.23,3.23,0,0,0-.55.12h0a6.45,6.45,0,0,0-1,.4,16,16,0,0,0-1.74,1l-.62.41a14.33,14.33,0,0,0,.86-3.43,2.59,2.59,0,0,0-.18-1.4.74.74,0,0,0-.15-.19.65.65,0,0,0-.31-.18l-.05,0c-.83-.15-.63.34-1,.14s.1-.28-.28-.81l-.09-.12c-.26-.31-.69-.32-1.21-.09a5.64,5.64,0,0,0-1.35.89h0A14.59,14.59,0,0,0,94,588.67c-.22.23-.45.48-.68.75,0-.16,0-.32,0-.47a13.16,13.16,0,0,0-.11-3.13c-.17-.89-.5-1.42-1-1.48a.66.66,0,0,0-.14,0,1.11,1.11,0,0,0-.28,0c-.4.1-.35.32-.5.35a.24.24,0,0,1-.14,0c-.39-.1.1-.31-.6-.79a.67.67,0,0,0-.36-.12,1.35,1.35,0,0,0-.91.4,8.74,8.74,0,0,0-1.7,2.3,1.62,1.62,0,0,1-.1.18c-.17.32-.35.66-.52,1q-.08-.45-.18-.87a13.41,13.41,0,0,0-.56-2c-.1-.26-.2-.49-.3-.7-.43-.84-.92-1.25-1.43-1.07a1,1,0,0,0-.39.21c-.25.21-.09.4-.4.4h-.1c-.19-.06,0-.27-.42-.48a1.62,1.62,0,0,0-.26-.12.8.8,0,0,0-.86.24,3.09,3.09,0,0,0-.37.46,11.9,11.9,0,0,0-1.26,3.89l-.12-.25-.08-.15a15.24,15.24,0,0,0-1-1.79,7.25,7.25,0,0,0-.79-1l-.3-.3c-.48-.41-.92-.54-1.28-.29-.7.48-.21.69-.6.79a.23.23,0,0,1-.14,0c-.18,0-.07-.34-.78-.4l-.09,0a.59.59,0,0,0-.32.09,1.6,1.6,0,0,0-.61,1s0,0,0,.07a12.11,12.11,0,0,0-.18,4c-.35-.4-.68-.78-1-1.11s-.55-.54-.81-.77a7.21,7.21,0,0,0-.95-.72l-.11-.06a2.15,2.15,0,0,0-1-.35.72.72,0,0,0-.57.25c-.55.65,0,.72-.37.92s-.2-.21-.82-.16l-.17,0a.76.76,0,0,0-.57.53,1.89,1.89,0,0,0-.12.52,3.17,3.17,0,0,0,0,.44c0,.18,0,.37,0,.57a15.21,15.21,0,0,0,.81,3.17,18.91,18.91,0,0,0-2.16-1.31,7.58,7.58,0,0,0-1.43-.55l-.13,0a2.37,2.37,0,0,0-.58,0,.76.76,0,0,0-.64.34l-.07.08c-.36.76.17.7-.12,1s-.22-.23-1,.12a.78.78,0,0,0-.27.24,1.59,1.59,0,0,0,0,1.3c0,.06,0,.13,0,.2a6.39,6.39,0,0,0,.33.82c.05.12.11.24.17.36a18.16,18.16,0,0,0,1.26,2.1,14.3,14.3,0,0,0-3.38-.85,4.21,4.21,0,0,0-.7,0,1.46,1.46,0,0,0-.86.27.6.6,0,0,0-.22.28.51.51,0,0,0-.07.15,1.32,1.32,0,0,0,0,.44c.06.33.3.28.15.55s-.28-.18-.92.37a.81.81,0,0,0-.22.87,3.37,3.37,0,0,0,.45,1l.47.62c.25.29.53.6.86.93l.43.41c.23.22.48.44.74.67a10.85,10.85,0,0,0-4.26.25h0c-.54.21-.84.52-.81.93,0,0,0,0,0,.08a.82.82,0,0,0,.19.5c.13.12.25.11.19.34l0,0c-.11.29-.32-.1-.78.55-.29.42-.06,1,.55,1.55l.21.2a9.62,9.62,0,0,0,1.55,1.07l.82.45.66.33-.71.14a9,9,0,0,0-3.42,1.27,1.56,1.56,0,0,0-.4.42.77.77,0,0,0-.08.64c.21.58.44.52.55.6s.06.08.06.19-.12.18-.29.29a.82.82,0,0,0-.26.35,1,1,0,0,0-.06.14c-.2.54.28,1.06,1.22,1.51.23.11.48.21.75.31a16.18,16.18,0,0,0,2.16.58l.46.09-.44.22c-.46.23-.87.45-1.26.68a6.65,6.65,0,0,0-2,1.58,1,1,0,0,0-.2,1,.31.31,0,0,0,.05.12c.47.7.68.21.79.6s-.1.21-.24.41a.9.9,0,0,0-.15.51h0a.83.83,0,0,0,.08.36c.19.37.71.62,1.49.77a11.94,11.94,0,0,0,2.36.13c.37,0,.75,0,1.15-.06-.23.2-.46.4-.67.6a13.44,13.44,0,0,0-1.41,1.46h0a4.64,4.64,0,0,0-.81,1.33.9.9,0,0,0,.15,1.06,1.06,1.06,0,0,0,.37.23c.31.11.39-.12.55.14s-.29.16-.14,1v0a.66.66,0,0,0,.25.4,1.24,1.24,0,0,0,.38.2,3.26,3.26,0,0,0,1.13.08,14.38,14.38,0,0,0,3.45-.84l-.25.37c-.34.52-.65,1-.89,1.48A8.3,8.3,0,0,0,62,631c-.05.17-.1.33-.13.48s0,.19,0,.28a.91.91,0,0,0,.42,1c.76.36.7-.17,1,.12a.38.38,0,0,1,.07.11c.07.18-.26.23,0,.88a.67.67,0,0,0,.31.31,1.1,1.1,0,0,0,.57.12,3,3,0,0,0,.55-.08l.4-.11a14.3,14.3,0,0,0,3.18-1.73c-.18.5-.33,1-.46,1.42a11.62,11.62,0,0,0-.35,1.64,5.3,5.3,0,0,0,0,1.17l0,.14a1.57,1.57,0,0,0,.15.49.74.74,0,0,0,.51.37c.82.15.63-.34,1-.14s-.08.27.27.78l.1.14a.78.78,0,0,0,.77.23,2.62,2.62,0,0,0,.79-.3l.19-.12a3.62,3.62,0,0,0,.37-.26A14.79,14.79,0,0,0,74,635.6a16.94,16.94,0,0,0,0,2.53,7.23,7.23,0,0,0,.2,1.39,4.29,4.29,0,0,0,.16.47,1.93,1.93,0,0,0,.19.32.79.79,0,0,0,.59.37h.1c.84-.06.53-.49.92-.39s-.1.32.6.8a.77.77,0,0,0,.33.12,1.29,1.29,0,0,0,.84-.33,3,3,0,0,0,.38-.35,4.75,4.75,0,0,0,.41-.46,7.09,7.09,0,0,0,.45-.64,17.69,17.69,0,0,0,1.18-2.13,14.23,14.23,0,0,0,1,3.35,4.78,4.78,0,0,0,.43.76l.11.12a1.18,1.18,0,0,0,.53.39.77.77,0,0,0,.45,0,1.16,1.16,0,0,0,.38-.21c.25-.21.09-.4.4-.4s0,.32.78.61a.82.82,0,0,0,.87-.25,2.49,2.49,0,0,0,.43-.57.43.43,0,0,0,0-.07,7.78,7.78,0,0,0,.57-1.33c.08-.26.16-.53.24-.82.13-.47.24-1,.35-1.56a11.16,11.16,0,0,0,2.32,3.54l0,0a1.7,1.7,0,0,0,.56.32.72.72,0,0,0,.54,0s.07,0,.1,0c.7-.47.21-.68.6-.79h.06c.3,0,.07.33.86.39.46,0,.79-.33,1-1a1.82,1.82,0,0,0,.07-.25c0-.14.07-.3.09-.47a12.11,12.11,0,0,0,.13-1.73c0-.28,0-.58,0-.89s0-.49,0-.74a11.61,11.61,0,0,0,3.06,2.77,1.78,1.78,0,0,0,.79.23.7.7,0,0,0,.35-.06.61.61,0,0,0,.24-.19l.15-.19c.28-.47-.09-.55.23-.73s.19.22.83.16l.15,0c.43-.07.65-.47.7-1.1a5.38,5.38,0,0,0-.1-1.44s0-.06,0-.08a16,16,0,0,0-.47-1.87c-.08-.24-.16-.49-.25-.74a4.68,4.68,0,0,0,.4.27,10.78,10.78,0,0,0,3.15,1.58c.65.17,1.13.11,1.38-.22,0,0,.06-.07.08-.11l0,0a.72.72,0,0,0,0-.74s0-.11.09-.2c.29-.29.22.24,1-.12a.67.67,0,0,0,.29-.26,1.34,1.34,0,0,0,.12-.88,6.81,6.81,0,0,0-.78-2.06c-.15-.27-.31-.55-.49-.84s-.4-.64-.62-1l.16.06a17.58,17.58,0,0,0,2.65.72,7,7,0,0,0,1,.09c.83,0,1.37-.21,1.46-.71a1.14,1.14,0,0,0,0-.44v0c-.07-.28-.29-.25-.14-.51,0-.08.08-.11.11-.12s.3.18.81-.25a.8.8,0,0,0,.21-.87,2.13,2.13,0,0,0-.09-.27,7.75,7.75,0,0,0-1.85-2.41c-.31-.29-.65-.6-1-.91l.45,0,.71,0a10.83,10.83,0,0,0,2.59-.18,3,3,0,0,0,.45-.12c.6-.21.93-.53.89-1-.06-.84-.49-.53-.38-.92h0a.36.36,0,0,1,.06-.11c.1-.12.27,0,.58-.29l.15-.18c.22-.31.15-.68-.14-1.09a2.63,2.63,0,0,0-.28-.34,11.11,11.11,0,0,0-3-2l-.4-.19c.52-.1,1-.2,1.46-.32l.68-.18a9.85,9.85,0,0,0,1.37-.53,2.26,2.26,0,0,0,1-.83.72.72,0,0,0,.07-.62c-.28-.79-.61-.37-.61-.78S112.7,612.5,113,612Z"/><path d="M134.54,127.93a3.49,3.49,0,0,0,2.06-.73,3.21,3.21,0,0,0,.81-2.29V106.44h-5.73v18.47h0c0,.11,0,.21,0,.31A2.79,2.79,0,0,0,134.54,127.93Z"/><path d="M119.25,144.4a.7.7,0,0,1-.8-.74V142.2c0-.46.18-.64.53-.64H134.1c2.23,0,3.31-1.19,3.31-3.57h0v-5.94c0-1.92-.89-2.93-2.68-2.93H112.9v5h18c.36,0,.53.18.53.46v1.64a.71.71,0,0,1,0,.14.48.48,0,0,1-.54.41h-15c-2.24,0-3.31,1.19-3.31,3.57v4.21c0,3.2,1.52,4.76,4.65,4.76h19.67a2.15,2.15,0,0,0,1.79-.74,2.73,2.73,0,0,0,0-3.47,2.33,2.33,0,0,0-1.79-.73Z"/><path d="M105.57,125.37a2,2,0,0,0,.63,1.46,2.1,2.1,0,0,0,1.61.64,3.06,3.06,0,0,0,.89-.18,15,15,0,0,0,4.74-3.2,13.34,13.34,0,0,0,3.49-4.94,14.17,14.17,0,0,0,3.57,4.39,17.88,17.88,0,0,0,4.12,2.65,2.37,2.37,0,0,0,1.07.28,2.16,2.16,0,0,0,2.15-2.11,2.53,2.53,0,0,0-1.08-2h0a18.44,18.44,0,0,1-5.19-5.58,14.31,14.31,0,0,1-2-7.59V106.9h-5.72v2.28a16.59,16.59,0,0,1-7.07,14.08A2.7,2.7,0,0,0,105.57,125.37Z"/><path d="M149.57,132.78h10.37c3.13,0,4.65-1.64,4.65-5h0V122h5.72v18.2a3.12,3.12,0,0,0,.9,2.28,2.93,2.93,0,0,0,2.06.83h.18a2.94,2.94,0,0,0,2.77-3.1V106.44H170.4V117h-5.81v-9.61h-5.72v7.78h-8.14v-7.78h-5.81v20.4C144.92,131.14,146.44,132.78,149.57,132.78Zm1.16-12.71h8.14v6.58c0,.74-.36,1.1-1,1.1H151.8a.82.82,0,0,1-.27,0,1,1,0,0,1-.8-1.09Z"/><path d="M188.38,134.7a54,54,0,0,0,7-.27c3.94-.28,6.62-.82,8-1.46a10.26,10.26,0,0,0,3.4-2.84v9.6a2.9,2.9,0,0,0,1,2.29,3,3,0,0,0,2.06.82h.19a2.94,2.94,0,0,0,2.76-3.11V121.8h5.73v-5h-5.82V106.44h-5.9v16.37c0,3-1.52,5-4.65,5.94a35.59,35.59,0,0,1-8.41.74,24.74,24.74,0,0,1-3.75-.19,1.94,1.94,0,0,1-1.61-2v-3.57a.6.6,0,0,1,0-.19.9.9,0,0,1,1-.81h9.66c2.24,0,3.31-1.19,3.31-3.57V107.26H183.19v4.94h13.15v5.28a.65.65,0,0,1-.63.67h-9.92c-2.24,0-3.31,1.18-3.31,3.56v6.13c0,2.29.44,3.94,1.34,4.94A7.07,7.07,0,0,0,188.38,134.7Z"/><path d="M250.67,142.84a3,3,0,0,0,2.81-3.11h0V106.35h-5.72v33.38a3,3,0,0,0,.71,2.29A3,3,0,0,0,250.67,142.84Z"/><path d="M232.2,132a10.64,10.64,0,0,0,8.4-3.39c2.06-2.19,3.13-5.3,3.13-9.14a13.29,13.29,0,0,0-3.13-9.15,10.76,10.76,0,0,0-8.4-3.38c-3.58,0-6.35,1.09-8.41,3.38a13.12,13.12,0,0,0-3.13,9.15,13.09,13.09,0,0,0,3.13,9.14A10.79,10.79,0,0,0,232.2,132Zm-3.94-18a5.08,5.08,0,0,1,3.94-1.83,4.92,4.92,0,0,1,3.93,1.83,8.81,8.81,0,0,1,1.52,5.49h0c0,2.37-.44,4.2-1.61,5.48a4.72,4.72,0,0,1-3.93,1.92,4.88,4.88,0,0,1-3.94-1.92,8.87,8.87,0,0,1-1.52-5.48A8.51,8.51,0,0,1,228.26,113.94Z"/><path d="M294.79,140.09a2.44,2.44,0,0,0,.63-1.73,2.57,2.57,0,0,0-.63-1.74,2.26,2.26,0,0,0-1.7-.73H258.58v4.94h34.51A2.27,2.27,0,0,0,294.79,140.09Z"/><path d="M291.31,128.57a2.48,2.48,0,0,0,0-3.29,2.34,2.34,0,0,0-1.79-.73H286.3V111.93h4.92v-4.85h-29v4.85h4.92v12.62H262v4.75h27.55A2.34,2.34,0,0,0,291.31,128.57Zm-10.65-4h-7.87V111.93h7.87Z"/><path d="M315,127.57h10.46a5,5,0,0,0,3.58-1.38,5.53,5.53,0,0,0,1.25-3.75V107.08h-20v15.36a5.13,5.13,0,0,0,1.25,3.75A4.66,4.66,0,0,0,315,127.57ZM316.08,112h8.23v9.51c0,.73-.36,1.1-1.17,1.1h-6a1.22,1.22,0,0,1-.27,0,1,1,0,0,1-.8-1.1Z"/><path d="M315.27,145.49a2.34,2.34,0,0,0-1.52,2.2,1.9,1.9,0,0,0,.54,1.37,2.08,2.08,0,0,0,1.52.55c.18,0,.36-.09.53-.09a21.88,21.88,0,0,0,5.73-2.29q4.15-2.32,5.63-4.94c1,1.74,2.86,3.38,5.81,4.94a17.38,17.38,0,0,0,5.64,2.2,1.86,1.86,0,0,0,.62.09c1.43,0,2.15-.64,2.15-1.92a2.38,2.38,0,0,0-1.52-2.29h0c-5.45-2.47-8.58-5.3-9.48-8.6h9.75v-4.84h-25.4v4.84h9.48C323.86,140.1,320.64,143,315.27,145.49Z"/><path d="M339.5,128.85a2.94,2.94,0,0,0,.9-2.29v-7h0v.09h5.72v-5h-5.81v-8.14h-5.82v20.12a3.16,3.16,0,0,0,.9,2.29A3,3,0,0,0,339.5,128.85Z"/><path d="M352.91,123.27a23.84,23.84,0,0,0,6.44-1.65,19.06,19.06,0,0,0,6.26-3.66,16.29,16.29,0,0,0,6.17,3.66,25.63,25.63,0,0,0,6.44,1.65,2.16,2.16,0,0,0,1.88-.55,2.13,2.13,0,0,0,.72-1.56,2.06,2.06,0,0,0-1.88-2.1,18.73,18.73,0,0,1-4.92-1.74,11.85,11.85,0,0,1-4.38-3.29h9.74v-4.66H368.47v-4.94h-5.72v4.94H351.84v4.57h9.84a12.32,12.32,0,0,1-4.47,3.29,24.21,24.21,0,0,1-4.92,1.74,2.08,2.08,0,0,0-1.79,2.19,2,2,0,0,0,.62,1.56A2.08,2.08,0,0,0,352.91,123.27Z"/><path d="M362.75,134H355c-1.69,0-2.59.91-2.59,2.83v7.5c0,3.2,1.43,4.85,4.47,4.85h17.53c2.95,0,4.47-1.65,4.47-4.85v-7.5c0-1.92-.8-2.83-2.59-2.83h-7.78V130.4H382a2.32,2.32,0,0,0,2.33-2.38,2.44,2.44,0,0,0-.63-1.73,2.17,2.17,0,0,0-1.7-.74H347.46v4.85h15.29Zm9.66,4.75a.84.84,0,0,1,.63.18,1.24,1.24,0,0,1,.09.65v2.83h0a2,2,0,0,1-.35,1.46c-.18.28-.63.46-1.43.46H359.89a3.29,3.29,0,0,1-1.07-.18c-.45-.18-.63-.82-.63-1.74v-2.83c0-.37,0-.56.09-.65a.84.84,0,0,1,.63-.18Z"/><path d="M419,141.1h0a8.43,8.43,0,0,0-2.59-6.58,9.3,9.3,0,0,0-6.8-2.47,10.47,10.47,0,0,0-7.15,2.47,8.31,8.31,0,0,0-2.78,6.58,8.59,8.59,0,0,0,2.69,6.68,11,11,0,0,0,6.36,2.44H410a11,11,0,0,0,6.36-2.44A8.74,8.74,0,0,0,419,141.1Zm-5.45,0a3.86,3.86,0,0,1-1.26,3.2,4.14,4.14,0,0,1-3,1.28,4,4,0,0,1-3-1.28,4.51,4.51,0,0,1-1.16-3.29,4.17,4.17,0,0,1,1.34-3.2,4.6,4.6,0,0,1,3.22-1.28,3.54,3.54,0,0,1,2.86,1.28,4.86,4.86,0,0,1,1.08,3.29Z"/><polygon points="409.61 109.18 401.03 109.18 401.03 104.15 395.39 104.15 395.39 109.18 386.54 109.18 386.54 114.03 409.61 114.03 409.61 109.18"/><path d="M404.78,129.3a8,8,0,0,0,2.42-6,7.88,7.88,0,0,0-2.42-6,8.94,8.94,0,0,0-6.53-2.29,9.16,9.16,0,0,0-6.61,2.29,8.74,8.74,0,0,0,0,12.07,10.57,10.57,0,0,0,13.14,0Zm-9.3-3.2a4.28,4.28,0,0,1,0-5.67,3.91,3.91,0,0,1,5.37,5.67,3.76,3.76,0,0,1-2.69,1.1A3.58,3.58,0,0,1,395.48,126.1Z"/><path d="M408.09,119.61h5.46V123h-5.46v4.48h5.37v1.38a3.07,3.07,0,0,0,.89,2.28,3,3,0,0,0,5-2.28V106.44h-5.81v8.69h-5.46Z"/><path d="M178.73,263.15H149.59V255a13.31,13.31,0,0,0,2.44.13h17.59a5.22,5.22,0,0,0,3.85-1.42.46.46,0,0,0,.07-.07,4.7,4.7,0,0,0-.07-6.65,5.62,5.62,0,0,0-3.85-1.42h-13.1a4,4,0,0,1-2.05-.39c-.64-.26-.9-1.16-.9-2.58v-9.17h18.88v-9.7H141.77v21.84H128.55a4.06,4.06,0,0,1-2.06-.39c-.64-.26-.9-1.16-.9-2.58v-9.17h12.58v-9.7H113.78V244.8c0,6.84,3.47,10.2,10.27,10.2h13.22v8h-33v9.69h74.45a5.21,5.21,0,0,0,3.85-1.42.46.46,0,0,1,.07-.07,4.7,4.7,0,0,0-.07-6.65A5.62,5.62,0,0,0,178.73,263.15Z"/><path d="M165.25,279h-51v9.82h42.87a2.13,2.13,0,0,1,2.44,2.45v11.37a5.85,5.85,0,0,0,1.8,4.65,6.44,6.44,0,0,0,4.49,1.68,6.16,6.16,0,0,0,4.37-1.68,6.34,6.34,0,0,0,1.8-4.65v-16.8C172.06,281.36,169.75,279,165.25,279Z"/><path d="M238.81,279.17a3.47,3.47,0,0,0,0-4.66,3.51,3.51,0,0,0-2.57-.9H216.86v-5.43a6.25,6.25,0,0,0,1.67.13h11.81a3.24,3.24,0,0,0,2.56-.9,3.25,3.25,0,0,0-2.56-5.56h-8.73a3.44,3.44,0,0,1-1.42-.25c-.38-.13-.64-.78-.64-1.68v-6.21h12.71v-6.46H211.85v14.6H203a3.44,3.44,0,0,1-1.42-.25c-.38-.13-.64-.78-.64-1.68v-6.21h8.34v-6.46H193v14.21c0,4.53,2.18,6.85,6.8,6.85h8.86v5.3H186.69v6.46h49.55A3.32,3.32,0,0,0,238.81,279.17Z"/><path d="M224.69,302.94a4.32,4.32,0,0,0,5.9,0,3.84,3.84,0,0,0,1.29-3.1h0V288.47c0-3-1.54-4.52-4.49-4.52h-34v6.59h28.37c1.16,0,1.67.51,1.67,1.68v7.62A4.28,4.28,0,0,0,224.69,302.94Z"/><polygon points="241.89 258.36 274.62 258.36 274.75 258.36 274.75 251.77 262.68 251.77 262.68 245.06 254.21 245.06 254.21 251.77 241.89 251.77 241.89 258.36"/><path d="M248.82,262.76l-.45.45a11.93,11.93,0,0,0,.45,16.86c2.44,2.2,5.65,3.23,9.63,3.23s7.19-1,9.62-3.23a11.08,11.08,0,0,0,3.73-8.66,11.47,11.47,0,0,0-3.73-8.65c-2.43-2.2-5.64-3.23-9.62-3.23S251.26,260.56,248.82,262.76Zm13.48,4.52a5.71,5.71,0,0,1,1.54,4.13,5.47,5.47,0,0,1-1.54,4.14,5.55,5.55,0,0,1-7.7,0,5.67,5.67,0,0,1-1.55-4.14,5.44,5.44,0,0,1,1.55-4.13A5.55,5.55,0,0,1,262.3,267.28Z"/><path d="M288,247.25H279.5v38.63a4.31,4.31,0,0,0,1.28,3.11,4.6,4.6,0,0,0,3,1,4.27,4.27,0,0,0,2.95-1.16,3.86,3.86,0,0,0,1.28-3.1V271.54h7.7V265H288Z"/><path d="M290,303.07a3.92,3.92,0,0,0,0-4.65,3.57,3.57,0,0,0-2.57-1H262.05a1.85,1.85,0,0,1-.47,0,2,2,0,0,1-1.72-2.19v-8.27h-8.47v10.34c0,2.45.51,4.26,1.54,5.3s2.82,1.55,5.26,1.55h29.27A3.58,3.58,0,0,0,290,303.07Z"/><path d="M238.29,363.15c0,4-.9,7.11-2.69,9.18-1.29,1.55-3.72,3-7.19,4.26-1.28.52-4.11.91-8.47,1.29s-8.35.65-11.94.65a25.61,25.61,0,0,1-5.39-.39c-3.47-.9-5.14-3.23-5.14-6.72V347h26.7V336.92H185v35.41c0,10.72,5.14,16.28,15.53,16.54a119.85,119.85,0,0,0,15.15-.78c7.57-.77,12.58-1.68,15-2.84a21.45,21.45,0,0,0,7.57-5.3V402h0a6.41,6.41,0,0,0,2.06,4.92,5.63,5.63,0,0,0,4.11,1.55,6,6,0,0,0,4.36-1.68,6.49,6.49,0,0,0,1.8-4.79v-66.8H238.29Z"/><path d="M311.08,398.43H261.53V405h49.55a3.17,3.17,0,0,0,2.44-.91,3.45,3.45,0,0,0,0-4.65A3.26,3.26,0,0,0,311.08,398.43Z"/><path d="M283.35,359.67V362a20.91,20.91,0,0,1-5.52,14.22,36.07,36.07,0,0,1-10.65,7.88,3.25,3.25,0,0,0-2.06,3,3.09,3.09,0,0,0,.9,2.07,2.65,2.65,0,0,0,2.19.9h.9c2.43-.52,5.64-2.07,9.62-4.78,4.62-3.23,7.58-6.33,9-9.3q2.11,4.46,9.24,9.3c4.11,2.71,7.19,4.27,9.24,4.65a2.76,2.76,0,0,0,1,.13c2.06,0,3.08-.9,3.08-2.71a3.42,3.42,0,0,0-2.05-3.11h0a33,33,0,0,1-10.14-7.63c-4-4.39-6-9.3-6-14.6v-2.32Z"/><path d="M369.1,387.19a2.82,2.82,0,0,0,.9-2.2,3,3,0,0,0-.9-2.2,3.46,3.46,0,0,0-2.57-.9H317v6.2h49.55A3.32,3.32,0,0,0,369.1,387.19Z"/><path d="M329.05,371.94v.13h-6.68v6.07h38.9a3.35,3.35,0,0,0,2.57-.9,3.06,3.06,0,0,0,.9-2.2,2.89,2.89,0,0,0-.9-2.2,3.35,3.35,0,0,0-2.57-.9h-4v-7h6.55v-6.2H322.5V365h6.55v7Zm8.22-7H349.2v7H337.27Z"/><path d="M363.06,415.22l.15-.14a2.82,2.82,0,0,0-.15-4,3,3,0,0,0-2.43-.9h-27c-.77,0-1.16-.4-1.16-1V407.6a.61.61,0,0,1,0-.19.67.67,0,0,1,.77-.58h24.27c1.67,0,2.69-.26,3.33-.91s.9-1.68.9-3.23h0v-6.84c0-2.46-1.15-3.62-3.72-3.62h-33.5v5.94h28.11c.51,0,.77.13.77.65v1.67a.67.67,0,0,1,0,.2.69.69,0,0,1-.77.58H328.15c-2.7,0-4,1.16-4,3.75v5.81c0,2.07.52,3.49,1.54,4.27a5.33,5.33,0,0,0,2.17.87h33.79A3.55,3.55,0,0,0,363.06,415.22Z"/><path d="M403.24,403.73a4.15,4.15,0,0,0,1,3,3.65,3.65,0,0,0,2.7,1.16,3.52,3.52,0,0,0,2.69-1,3.84,3.84,0,0,0,1.16-3.1v-45h-7.58v13.83h-6.8v6.59h6.81v24.55Z"/><path d="M399,391.71a2.67,2.67,0,0,0-.77-1.94,2.72,2.72,0,0,0-2.06-.77,3.42,3.42,0,0,0-1.15.13,29,29,0,0,1-10.92.9,2.47,2.47,0,0,1-2.18-2.71v-4.91a1.3,1.3,0,0,1,1.42-1.43h7.57q4.62,0,4.62-4.65V359.92H375.13v6.59h13v7.11c0,.65-.13,1-.65,1H378.6c-3.08,0-4.63,1.56-4.63,4.53v9.69c0,2.58.52,4.52,1.55,5.68s3.08,2.07,5.9,2.2H384a36,36,0,0,0,12.84-2.2h0A3,3,0,0,0,399,391.71Z"/><path d="M418.13,408.12A3.8,3.8,0,0,0,421,407a4.22,4.22,0,0,0,1.15-3.11V358.76h-7.82v45.09h0a4.73,4.73,0,0,0,1,3.11A4,4,0,0,0,418.13,408.12Z"/><path d="M474.74,406.57a3.86,3.86,0,0,0,1.29-3.09v0h-.13V358.63h-8.22v44.83a4.27,4.27,0,0,0,1.16,3.11A4.34,4.34,0,0,0,474.74,406.57Z"/><path d="M445.48,393c5.13,0,9.11-1.42,12.06-4.52s4.5-7.11,4.5-12.28-1.54-9.17-4.5-12.27-6.93-4.52-12.06-4.52-9.12,1.42-12.07,4.52-4.49,7.11-4.49,12.27,1.54,9.18,4.49,12.28S440.35,393,445.48,393ZM440,368.84a7.17,7.17,0,0,1,5.65-2.46,7,7,0,0,1,5.64,2.46,11.68,11.68,0,0,1,2.19,7.36h0a11,11,0,0,1-2.31,7.37,7.12,7.12,0,0,1-5.65,2.58,7.3,7.3,0,0,1-5.65-2.58,11.71,11.71,0,0,1-2.18-7.37A11,11,0,0,1,440,368.84Z"/><path d="M411.59,573.27a7.05,7.05,0,0,0,4.9,1.83,6.75,6.75,0,0,0,4.77-1.83,6.88,6.88,0,0,0,2-5.06V549.9c0-4.92-2.52-7.46-7.43-7.46H360.15v10.7H407c1.83,0,2.67.85,2.67,2.68v12.39A6.38,6.38,0,0,0,411.59,573.27Z"/><path d="M434.71,534a5.11,5.11,0,0,0,.09-7.23l-.09-.09a6.18,6.18,0,0,0-4.2-1.54H398.7v-8.88a14.79,14.79,0,0,0,2.66.15h19.2a5.77,5.77,0,0,0,4.2-1.55,5.13,5.13,0,0,0,.09-7.24l-.09-.09a6.18,6.18,0,0,0-4.2-1.54h-14.3a4.55,4.55,0,0,1-2.24-.42c-.65-.27-.93-1.16-1-2.53,0-.1,0-.19,0-.29v-10h20.6V482.19H390.15V506h0V505a16.26,16.26,0,0,0-1.62.94H375.71a4.55,4.55,0,0,1-2.24-.42c-.7-.29-1-1.27-1-2.82v-10h13.73V482.19H359.59v22.94a13.76,13.76,0,0,0,1.22,6c1.65,3.4,5,5.13,10,5.13h14.44V525h-36v10.55h81.29A5.69,5.69,0,0,0,434.71,534Z"/><path d="M489.72,573.29c0,4.36-1,7.74-2.94,10-1.41,1.69-4.07,3.24-7.85,4.65-1.37.55-4.36,1-8.94,1.38l-.31,0c-4.77.42-9.11.7-13,.7a27.59,27.59,0,0,1-5.88-.42c-3.79-1-5.61-3.52-5.61-7.32V555.69H474.3v-11H431.56v38.57a26.18,26.18,0,0,0,.86,7c2,7.1,7.29,10.81,16.09,11a132.42,132.42,0,0,0,16.54-.85c8.27-.84,13.74-1.83,16.4-3.1a23.5,23.5,0,0,0,8.27-5.77v24.08A6.93,6.93,0,0,0,492,621a6.11,6.11,0,0,0,4.49,1.69,6.49,6.49,0,0,0,4.76-1.83,7,7,0,0,0,2-5.2V542.88H489.72Z"/><path d="M481.91,520.55v17.39h21V520.55a38.58,38.58,0,0,0-38.7-38.36h-36V503h36A17.63,17.63,0,0,1,481.91,520.55Z"/><path d="M427.64,591.6c-.12-.43-.21-.88-.31-1.32h-29a17.63,17.63,0,0,1-17.69-17.53V557.92h-21v14.83a38.59,38.59,0,0,0,38.71,38.37h46.91V606C433.73,604.68,429.29,597.58,427.64,591.6Z"/><path class="cls-6" d="M106.84,75.54v0a3.3,3.3,0,1,0-6.59-.1v.1a3.28,3.28,0,0,0,3.26,3.31h0A3.29,3.29,0,0,0,106.84,75.54Z"/><path class="cls-6" d="M93.69,78.82H90.35V75.57a3.32,3.32,0,0,0-3.25-3.38H87a3.32,3.32,0,0,0-3.25,3.38v3.25H80.5a3.35,3.35,0,0,0-3.34,3.31,3.28,3.28,0,0,0,3.24,3.32h3.36v3.31a3.3,3.3,0,0,0,6.59.07V85.45H93.6a3.25,3.25,0,0,0,3.34-3.16V82.2A3.32,3.32,0,0,0,93.69,78.82Z"/><path class="cls-6" d="M336.49,274h.05a5.6,5.6,0,0,0,5.62-5.58v-.06a5.62,5.62,0,0,0-11.23-.12v.12A5.6,5.6,0,0,0,336.49,274Z"/><path class="cls-6" d="M302.61,237.94h5.76v5.64a5.61,5.61,0,0,0,11.22.11v-5.75h5.53a5.52,5.52,0,0,0,5.68-5.35,1,1,0,0,0,0-.17,5.68,5.68,0,0,0-5.53-5.76H319.6v-5.52a5.66,5.66,0,0,0-5.53-5.75h-.17a5.65,5.65,0,0,0-5.52,5.75v5.52h-5.53a5.68,5.68,0,0,0-5.69,5.53A5.61,5.61,0,0,0,302.61,237.94Z"/><path class="cls-6" d="M504.53,337.39h-5.68v-5.52a5.65,5.65,0,0,0-5.52-5.75h-.18a5.65,5.65,0,0,0-5.52,5.75v5.52h-5.52a5.67,5.67,0,0,0-5.69,5.53,5.6,5.6,0,0,0,5.44,5.75h5.77v5.64a5.61,5.61,0,0,0,11.22.11v-5.75h5.52a5.52,5.52,0,0,0,5.69-5.35c0-.06,0-.12,0-.17A5.69,5.69,0,0,0,504.53,337.39Z"/><path class="cls-6" d="M128.59,367.63a5.62,5.62,0,0,0-5.68,5.55v.12a5.6,5.6,0,0,0,5.56,5.64h.06a5.6,5.6,0,0,0,5.61-5.58v-.06A5.61,5.61,0,0,0,128.59,367.63Z"/><path class="cls-6" d="M158.76,337.05h-5.69v-5.53a5.66,5.66,0,0,0-5.52-5.75h-.17a5.67,5.67,0,0,0-5.53,5.75v5.53h-5.52a5.67,5.67,0,0,0-5.69,5.52,5.6,5.6,0,0,0,5.45,5.75h5.76V354a5.61,5.61,0,0,0,11.22.12v-5.75h5.53a5.54,5.54,0,0,0,5.69-5.37v-.16A5.67,5.67,0,0,0,158.76,337.05Z"/></g></g></svg>